<svg xmlns="http://www.w3.org/2000/svg" xmlns:xlink="http://www.w3.org/1999/xlink" height="118.14400000000137" width="211.7340000000022">
  <g opacity="1">
    <g opacity="1">
      <g opacity="1">
        <ellipse fill-opacity="0" stroke="rgb(63,61,86)" stroke-opacity="1" stroke-width="1" stroke-linecap="butt" stroke-linejoin="miter" opacity="1" rx="8.246600148048735" ry="8.15974339821621" cx="194.61812401081795" cy="17.64418788171672"/>
      </g>
      <g opacity="1">
        <g opacity="1">
          <path fill="rgb(125,214,131)" fill-opacity="1" opacity="1" fill-rule="evenodd" d="M211.42610506803354 2.29835476075379L209.43216568432442 0.3150342282171862C209.23313243224231 0.11355507711212806 208.96032243927306 -2.2737367544323206e-13 208.6753802711357 -2.2737367544323206e-13C208.395684449017 -2.2737367544323206e-13 208.12713711218788 0.10966176018255694 207.92908754998427 0.3046520497383392L195.4129454326416 12.585795860978005L190.12036598971304 7.3077558767958575C189.92198853088323 7.108547827233043 189.65114591767096 6.9966149655080105 189.36882692254292 6.9966149655080105C189.0914263768074 6.9966149655080105 188.82517431636143 7.104654510303477 188.62778054741014 7.297373698317015L186.61285577962647 9.270312052374775C186.20036182391092 9.676514785359531 186.19577127114462 10.34551641109002 186.60236308758917 10.757559119469132L194.64042098139697 18.772600905136443C195.05094755735547 19.180750296585988 195.72739829713382 19.18561694274794 196.14349911573711 18.78298308361529L211.41561237599626 3.7856018278481547C211.61923618084467 3.5886648798275895 211.73400000000242 3.3184037963001907 211.73400000000242 3.0367872050615583C211.73400000000242 2.7600372599848835 211.62317094035868 2.4943183795419777 211.42610506803354 2.2983547607538037L211.42610506803354 2.29835476075379Z"/>
        </g>
        <g opacity="1">
          <path fill="rgb(125,214,131)" fill-opacity="1" opacity="1" fill-rule="evenodd" d="M211.42610506803354 31.944989850169023L209.43216568432442 29.96166931763242C209.23313243224231 29.760514609604826 208.96032243927306 29.646959532492474 208.6753802711357 29.646959532492474C208.395684449017 29.646959532492474 208.12713711218788 29.756296849597792 207.92908754998427 29.95161158223104L195.4129454326416 42.23243095039322L190.12036598971304 36.95439096621108C189.92198853088323 36.75550735972573 189.65114591767096 36.643250054923236 189.36882692254292 36.643250054923236C189.0914263768074 36.643250054923236 188.82517431636143 36.7512895997187 188.62778054741014 36.94400878773224L186.61285577962647 38.91694714178999C186.20036182391092 39.32347431785221 186.19577127114462 39.9924759435827 186.60236308758917 40.40451865196181L194.64042098139697 48.41956043762911C195.05094755735547 48.82770982907866 195.72739829713382 48.83225203216314 196.14349911573711 48.42994261610795L211.41561237599626 33.432236917263374C211.61923618084467 33.23529996924281 211.73400000000242 32.965363328792876 211.73400000000242 32.68342229447678C211.73400000000242 32.406996792477564 211.62317094035868 32.14127791203467 211.42610506803354 31.944989850169023L211.42610506803354 31.944989850169023Z"/>
        </g>
        <g opacity="1">
          <path fill="rgb(125,214,131)" fill-opacity="1" opacity="1" fill-rule="evenodd" d="M211.42610506803354 91.2385844720781L209.43216568432442 89.25558838261894C209.23313243224231 89.05410923151389 208.96032243927306 88.94055415440153 208.6753802711357 88.94055415440153C208.395684449017 88.94055415440153 208.12713711218788 89.05021591458431 207.92908754998427 89.2452062041401L195.4129454326416 101.52602557230236L190.12036598971304 96.24798558812017C189.92198853088323 96.04910198163482 189.65114591767096 95.93684467683232 189.36882692254292 95.93684467683232C189.0914263768074 95.93684467683232 188.82517431636143 96.04520866470526 188.62778054741014 96.23792785271878L186.61285577962647 98.21054176369908C186.20036182391092 98.61706893976131 186.19577127114462 99.2860705654918 186.60236308758917 99.6981132738709L194.64042098139697 107.71315505953825C195.05094755735547 108.1213044509878 195.72739829713382 108.12584665407229 196.14349911573711 107.72353723801709L211.41561237599626 92.72615598224988C211.61923618084467 92.52889459115185 211.73400000000242 92.25895795070191 211.73400000000242 91.97734135946328C211.73400000000242 91.7005914143866 211.62317094035868 91.43487253394369 211.42610506803354 91.23858447207806L211.42610506803354 91.2385844720781Z"/>
        </g>
      </g>
      <g opacity="1">
        <path fill="rgb(242,242,242)" fill-opacity="1" opacity="1" fill-rule="evenodd" d="M149.52610787723881 21.87330339645785C149.52610787723881 17.28730049650615 145.76316619536976 13.564316182608309 141.12867528115427 13.564316182608309L8.397432596084535 13.564316182608309C3.762941681869041 13.564316182608309 0 17.287300496506138 0 21.87330339645785L0 22.11858236302053C0 26.70426081989477 3.762941681869041 30.427569576870063 8.397432596084535 30.427569576870063L141.12867528115427 30.427569576870063C145.76316619536976 30.427569576870063 149.52610787723881 26.70426081989477 149.52610787723881 22.118582363020522L149.52610787723881 21.873303396457842L149.52610787723881 21.87330339645785Z"/>
      </g>
      <g opacity="1">
        <path fill="rgb(242,242,242)" fill-opacity="1" opacity="1" fill-rule="evenodd" d="M149.71300895415274 51.1121135375019C149.71300895415274 46.52611063755019 145.9500672722837 42.80312632365235 141.3155763580682 42.80312632365235L8.584333672998488 42.80312632365235C3.9498427587829954 42.80312632365235 0.18690107691395497 46.52611063755018 0.18690107691395497 51.1121135375019L0.18690107691395497 51.35739250406458C0.18690107691395497 55.94307096093881 3.9498427587829954 59.66637971791411 8.584333672998488 59.66637971791411L141.3155763580682 59.66637971791411C145.9500672722837 59.66637971791411 149.71300895415274 55.94307096093881 149.71300895415274 51.35739250406456L149.71300895415274 51.112113537501884L149.71300895415274 51.1121135375019Z"/>
      </g>
      <g opacity="1">
        <path fill="rgb(242,242,242)" fill-opacity="1" opacity="1" fill-rule="evenodd" d="M149.8999100310665 80.35092367854548C149.8999100310665 75.76492077859378 146.13696834919745 72.04193646469594 141.50247743498196 72.04193646469594L8.771234749912217 72.04193646469594C4.136743835696723 72.04193646469594 0.37380215382768256 75.76492077859378 0.37380215382768256 80.35092367854548L0.37380215382768256 80.59620264510815C0.37380215382768256 85.1818811019824 4.136743835696723 88.9051898589577 8.771234749912217 88.9051898589577L141.50247743498196 88.9051898589577C146.13696834919745 88.9051898589577 149.8999100310665 85.1818811019824 149.8999100310665 80.59620264510815L149.8999100310665 80.35092367854548L149.8999100310665 80.35092367854548Z"/>
      </g>
      <g opacity="1">
        <path fill="rgb(242,242,242)" fill-opacity="1" opacity="1" fill-rule="evenodd" d="M150.0868111079807 109.58973381958884C150.0868111079807 105.00373091963714 146.32419732273783 101.2807466057393 141.68937851189617 101.2807466057393L8.958135826826508 101.2807466057393C4.323644912611018 101.2807466057393 0.5607032307419786 105.00373091963714 0.5607032307419786 109.58973381958884L0.5607032307419786 109.83501278615151C0.5607032307419786 114.42069124302576 4.323644912611018 118.14400000000106 8.958135826826508 118.14400000000106L141.68937851189617 118.14400000000106C146.32419732273783 118.14400000000106 150.0868111079807 114.42069124302576 150.0868111079807 109.83501278615151L150.0868111079807 109.58973381958884L150.0868111079807 109.58973381958884Z"/>
      </g>
      <g opacity="1">
        <path fill-opacity="0" stroke="rgb(63,61,86)" stroke-opacity="1" stroke-width="1" stroke-linecap="butt" stroke-linejoin="miter" opacity="1" fill-rule="evenodd" d="M154.1992905933412 17.521548398435158C154.1992905933412 12.93554549848345 150.43634891147215 9.21223674150815 145.80153010063052 9.21223674150815L13.070615312187003 9.21223674150815C8.435796501345347 9.21223674150815 4.673182716102474 12.93554549848345 4.673182716102474 17.521548398435158L4.673182716102474 17.76650292192037C4.673182716102474 22.352505821872075 8.435796501345347 26.07581457884737 13.070615312187003 26.07581457884737L145.80153010063052 26.07581457884737C150.43634891147215 26.07581457884737 154.1992905933412 22.352505821872075 154.1992905933412 17.76650292192037L154.1992905933412 17.521548398435158L154.1992905933412 17.521548398435158Z"/>
      </g>
      <g opacity="1">
        <path fill-opacity="0" stroke="rgb(63,61,86)" stroke-opacity="1" stroke-width="1" stroke-linecap="butt" stroke-linejoin="miter" opacity="1" fill-rule="evenodd" d="M154.38619167025618 46.76035853947926C154.38619167025618 42.17435563952752 150.62324998838713 38.45104688255219 145.98843117754546 38.45104688255219L13.257516389101877 38.45104688255219C8.622697578260212 38.45104688255219 4.860083793017338 42.17435563952752 4.860083793017338 46.76035853947926L4.860083793017338 47.00531306296448C4.860083793017338 51.59131596291623 8.622697578260212 55.314624719891555 13.257516389101877 55.314624719891555L145.9884311775455 55.314624719891555C150.62324998838716 55.314624719891555 154.3861916702562 51.59131596291623 154.3861916702562 47.00531306296448L154.3861916702562 46.76035853947926L154.38619167025618 46.76035853947926Z"/>
      </g>
      <g opacity="1">
        <path fill-opacity="0" stroke="rgb(63,61,86)" stroke-opacity="1" stroke-width="1" stroke-linecap="butt" stroke-linejoin="miter" opacity="1" fill-rule="evenodd" d="M154.57309274716968 75.9991686805235C154.57309274716968 71.41316578057179 150.81015106530063 67.69018146667395 146.175332254459 67.69018146667395L13.444417466015375 67.69018146667395C8.809598655173714 67.69018146667395 5.046984869930839 71.41316578057179 5.046984869930839 75.9991686805235L5.046984869930839 76.24444764708616C5.046984869930839 80.83012610396041 8.809598655173714 84.55343486093571 13.444417466015375 84.55343486093571L146.175332254459 84.55343486093571C150.81015106530063 84.55343486093571 154.57309274716968 80.83012610396041 154.57309274716968 76.24444764708616L154.57309274716968 75.9991686805235L154.57309274716968 75.9991686805235Z"/>
      </g>
      <g opacity="1">
        <path fill-opacity="0" stroke="rgb(63,61,86)" stroke-opacity="1" stroke-width="1" stroke-linecap="butt" stroke-linejoin="miter" opacity="1" fill-rule="evenodd" d="M154.7599938240836 105.23797882156617C154.7599938240836 100.65197592161446 150.99705214221456 96.92899160771663 146.3622333313729 96.92899160771663L13.63131854292933 96.92899160771663C8.996499732087667 96.92899160771663 5.233885946844794 100.65197592161446 5.233885946844794 105.23797882156617L5.233885946844794 105.48325778812884C5.233885946844794 110.06893624500309 8.996499732087667 113.79224500197839 13.63131854292933 113.79224500197839L146.36223333137292 113.79224500197839C150.99705214221459 113.79224500197839 154.75999382408364 110.06893624500309 154.75999382408364 105.48325778812884L154.75999382408364 105.23797882156617L154.7599938240836 105.23797882156617Z"/>
      </g>
      <g opacity="1">
        <ellipse fill-opacity="0" stroke="rgb(63,61,86)" stroke-opacity="1" stroke-width="1" stroke-linecap="butt" stroke-linejoin="miter" opacity="1" rx="8.246600148048735" ry="8.159743398216207" cx="194.61812401081795" cy="47.01893967221751"/>
      </g>
      <g opacity="1">
        <ellipse fill-opacity="0" stroke="rgb(63,61,86)" stroke-opacity="1" stroke-width="1" stroke-linecap="butt" stroke-linejoin="miter" opacity="1" rx="8.246600148048735" ry="8.1597433982162" cx="194.61812401081795" cy="76.39369146271898"/>
      </g>
      <g opacity="1">
        <ellipse fill-opacity="0" stroke="rgb(63,61,86)" stroke-opacity="1" stroke-width="1" stroke-linecap="butt" stroke-linejoin="miter" opacity="1" rx="8.246600148048735" ry="8.159743398216214" cx="194.61812401081795" cy="105.7684432532198"/>
      </g>
    </g>
  </g>
</svg>