<svg xmlns="http://www.w3.org/2000/svg" xmlns:xlink="http://www.w3.org/1999/xlink" height="126.84799999999962" width="180.05800000000045">
  <g opacity="1">
    <g opacity="1">
      <g opacity="1">
        <rect fill="rgb(230,230,230)" fill-opacity="1" opacity="1" x="15.423333710920815" y="10.404251564557171" width="141.5408949670587" height="88.43472072042755" rx="0" ry="0"/>
      </g>
      <g opacity="1">
        <rect fill="rgb(255,255,255)" fill-opacity="1" opacity="1" x="24.91479383458227" y="27.44096542531554" width="25.923304821226136" height="16.906554397828252" rx="0" ry="0"/>
      </g>
      <g opacity="1">
        <rect fill="rgb(255,255,255)" fill-opacity="1" opacity="1" x="57.126264840742806" y="27.44096542531554" width="25.923304821226203" height="16.906554397828252" rx="0" ry="0"/>
      </g>
      <g opacity="1">
        <rect fill="rgb(255,255,255)" fill-opacity="1" opacity="1" x="89.33799272693022" y="27.44096542531554" width="25.92330482122628" height="16.906554397828252" rx="0" ry="0"/>
      </g>
      <g opacity="1">
        <rect fill="rgb(255,255,255)" fill-opacity="1" opacity="1" x="121.54946373309053" y="27.44096542531554" width="25.92330482122638" height="16.906554397828252" rx="0" ry="0"/>
      </g>
      <g opacity="1">
        <rect fill="rgb(255,255,255)" fill-opacity="1" opacity="1" x="24.91479383458227" y="51.37020276662474" width="25.923304821226136" height="16.906554397828238" rx="0" ry="0"/>
      </g>
      <g opacity="1">
        <rect fill="rgb(255,255,255)" fill-opacity="1" opacity="1" x="57.126264840742806" y="51.37020276662474" width="25.923304821226203" height="16.906554397828238" rx="0" ry="0"/>
      </g>
      <g opacity="1">
        <rect fill="rgb(255,255,255)" fill-opacity="1" opacity="1" x="89.33799272693022" y="51.37020276662474" width="25.92330482122628" height="16.906554397828238" rx="0" ry="0"/>
      </g>
      <g opacity="1">
        <rect fill="rgb(255,255,255)" fill-opacity="1" opacity="1" x="121.54946373309053" y="51.37020276662474" width="25.92330482122638" height="16.906554397828238" rx="0" ry="0"/>
      </g>
      <g opacity="1">
        <rect fill="rgb(255,255,255)" fill-opacity="1" opacity="1" x="24.91479383458227" y="75.29969784944456" width="25.923304821226136" height="16.906554397828273" rx="0" ry="0"/>
      </g>
      <g opacity="1">
        <rect fill="rgb(255,255,255)" fill-opacity="1" opacity="1" x="57.126264840742806" y="75.29969784944456" width="25.923304821226203" height="16.906554397828273" rx="0" ry="0"/>
      </g>
      <g opacity="1">
        <rect fill="rgb(255,255,255)" fill-opacity="1" opacity="1" x="89.33799272693022" y="75.29969784944456" width="25.92330482122628" height="16.906554397828273" rx="0" ry="0"/>
      </g>
      <g opacity="1">
        <rect fill="rgb(255,255,255)" fill-opacity="1" opacity="1" x="121.54946373309053" y="75.29969784944456" width="25.92330482122638" height="16.906554397828273" rx="0" ry="0"/>
      </g>
      <g opacity="1">
        <ellipse fill="rgb(255,255,255)" fill-opacity="1" opacity="1" rx="3.888392971173154" ry="3.9014332482647553" cx="52.49343355084998" cy="16.906812139338957"/>
      </g>
      <g opacity="1">
        <ellipse fill="rgb(255,255,255)" fill-opacity="1" opacity="1" rx="3.888392971173154" ry="3.9014332482647553" cx="116.78305482907317" cy="16.906812139338957"/>
      </g>
      <g opacity="1">
        <rect fill="rgb(230,230,230)" fill-opacity="1" opacity="1" x="50.93802498637547" y="-1.1368683772161603e-13" width="3.1108171289492503" height="17.947056876737214" rx="0" ry="0"/>
      </g>
      <g opacity="1">
        <rect fill="rgb(230,230,230)" fill-opacity="1" opacity="1" x="115.22790314462532" y="-1.1368683772161603e-13" width="3.1108171289493356" height="17.947056876737214" rx="0" ry="0"/>
      </g>
      <g opacity="1">
        <ellipse fill="rgb(63,61,86)" fill-opacity="1" opacity="1" rx="25.688002716344542" ry="25.774151075277487" cx="154.36999728365578" cy="101.07384892472204"/>
      </g>
      <g opacity="1">
        <ellipse fill="rgb(0,0,0)" fill-opacity="0.1" opacity="1" rx="22.09168233605631" ry="22.165769924738626" cx="154.36999728365532" cy="101.07384892472184"/>
      </g>
      <g opacity="1">
        <g opacity="1">
          <path fill="rgb(125,214,131)" fill-opacity="1" opacity="1" fill-rule="evenodd" d="M140.3733752436011 35.89411375347436C140.37029268327515 39.10969684162597 137.73239168433372 41.75386700043869 134.5275564654426 41.75386700043869C131.32066620633412 41.75386700043869 128.68199456731122 39.10608846047543 128.68199456731122 35.88870118174855C128.68199456731122 32.67105616151091 131.32066620633415 30.023277621547663 134.5275564654426 30.023277621547663C136.5294225171273 30.023277621547663 138.39694031460556 31.05501688909102 139.46735938779563 32.75224473739804C140.0592109703802 33.69248576862416 140.37337524360112 34.781959134576134 140.37337524360112 35.89411375347436L140.3733752436011 35.89411375347436Z"/>
        </g>
        <g opacity="1">
          <path fill="rgb(125,214,131)" fill-opacity="1" opacity="1" fill-rule="evenodd" d="M75.9501763512532 59.82360883629431C75.94709379092724 63.03893418293518 73.30919279198581 65.68336208325864 70.10435757309466 65.68336208325864C66.8974673139862 65.68336208325864 64.25879567496327 63.03558354329539 64.25879567496327 59.817938523057755C64.25879567496327 56.60029350282012 66.89746731398618 53.95251496285687 70.10435757309465 53.95251496285687C72.10622362477937 53.95251496285687 73.97374142225763 54.98425423040022 75.04416049544771 56.68148207870725C75.63601207803228 57.62172310993338 75.95043323128036 58.711454217396096 75.95017635125319 59.82360883629431L75.9501763512532 59.82360883629431Z"/>
        </g>
        <g opacity="1">
          <path fill="rgb(125,214,131)" fill-opacity="1" opacity="1" fill-rule="evenodd" d="M43.73844846506568 59.82360883629431C43.73562278476689 63.03893418293518 41.09746490579831 65.68336208325864 37.89288656693435 65.68336208325864C34.68599630782591 65.68336208325864 32.04706778877585 63.03558354329539 32.04706778877585 59.817938523057755C32.04706778877585 56.60029350282012 34.68599630782591 53.95251496285687 37.89288656693435 53.95251496285687C39.89449573859191 53.95251496285687 41.76201353607014 54.98425423040022 42.832689489287375 56.68148207870725C43.42454107187195 57.62172310993338 43.73870534509284 58.711454217396096 43.73844846506568 59.82360883629431L43.73844846506568 59.82360883629431Z"/>
        </g>
        <g opacity="1">
          <path fill="rgb(125,214,131)" fill-opacity="1" opacity="1" fill-rule="evenodd" d="M153.31139469171487 114.15345737089298L153.31139469171487 110.9273068808005C151.68585787982457 110.8956046749779 150.0045781020398 110.3203256229777 149.02381015832975 109.52184242266563L149.69632206944368 107.38181465888533C150.86152987265706 108.25813579544476 152.27539754216468 108.73933919602021 153.73165041615425 108.75531916968689C155.7214431065623 108.75531916968689 157.06646692879013 107.44573455355203 157.06646692879013 105.62504852159444C157.06646692879013 103.86802464279276 155.97369929323682 102.78215965799133 153.89990683394632 101.82387672101251C151.04134589167145 100.54625205221102 149.2758094649771 99.0766099578987 149.2758094649771 96.29789873047302C149.2758094649771 93.64651180935924 150.92934619982822 91.63406609340156 153.50765103246775 91.15518236642292L153.50765103246775 87.92903187633044L155.24493065617415 87.92903187633044L155.24493065617415 91.02734257708956C156.5403766331594 91.0451267413315 157.80448324683076 91.43302771501442 158.88800320140615 92.14516750922434L158.18749136733143 94.25349306718203C157.14815477742812 93.53954908239685 155.91590128712508 93.16066906159026 154.6564185139427 93.16737034086984C152.49862628576975 93.16737034086984 151.6858578798246 94.6367546936714 151.6858578798246 95.91437936247291C151.6858578798246 97.57552339927454 152.72288254948344 98.40596654691998 155.16093088729173 99.55600916789888C158.0472348725002 100.89755373136705 159.5047721466256 102.55844002665795 159.5047721466256 105.40132889026104C159.5047721466256 107.92461828053071 157.96323510361776 110.28862341715515 155.07693111840928 110.8314270388005L155.07693111840928 114.15345737089301L153.3113946917149 114.15345737089301L153.31139469171487 114.15345737089298Z"/>
        </g>
        <g opacity="1">
          <rect fill="rgb(125,214,131)" fill-opacity="1" opacity="1" x="6.223689298115914" y="110.33269721549414" width="4.890995717192105" height="7.974522342690822" rx="0" ry="0"/>
        </g>
        <g opacity="1">
          <rect fill="rgb(125,214,131)" fill-opacity="1" opacity="1" x="19.955724910192203" y="102.44013667322247" width="4.890995717192066" height="15.429437799704068" rx="0" ry="0"/>
        </g>
        <g opacity="1">
          <ellipse fill="rgb(125,214,131)" fill-opacity="1" opacity="1" rx="2.3119202444710396" ry="2.319673596774976" cx="8.733920923557335" cy="103.39352252149723"/>
        </g>
        <g opacity="1">
          <ellipse fill="rgb(125,214,131)" fill-opacity="1" opacity="1" rx="2.3119202444709845" ry="2.319673596774976" cx="22.348562363219642" cy="94.6303111559028"/>
        </g>
      </g>
      <g opacity="1">
        <path fill="rgb(255,255,255)" fill-opacity="1" opacity="1" fill-rule="evenodd" d="M139.46735938779528 32.752244737398L133.69680645759556 38.54111906890534C133.33409185924077 37.97769612639977 131.31347356557308 35.359557860173084 131.31347356557308 35.359557860173084C131.57240863295385 35.096919260716 131.8488115421817 34.85206482550087 132.14062725303938 34.626798745102946L133.81625567022658 36.86837666411983L138.79150803632825 31.876439083860078C139.0440211030299 32.14629444561823 139.27007552693377 32.439346543344136 139.46735938779528 32.75224473739801L139.46735938779528 32.752244737398Z"/>
      </g>
      <g opacity="1">
        <path fill="rgb(255,255,255)" fill-opacity="1" opacity="1" fill-rule="evenodd" d="M75.04416049544734 56.6814820787072L69.27360756524762 62.47035641021449C68.91089296689283 61.90693346770893 66.89027467322512 59.28879520148225 66.89027467322512 59.28879520148225C67.14946662063305 59.026156602025175 67.42561264983375 58.78155990832079 67.71742836069144 58.55629382792287L69.39305677787863 60.79787174693975L74.36830914398031 55.80567642516928C74.620822210682 56.07553178692744 74.84687663458583 56.36884162616409 75.04416049544734 56.68148207870721L75.04416049544734 56.6814820787072Z"/>
      </g>
      <g opacity="1">
        <path fill="rgb(255,255,255)" fill-opacity="1" opacity="1" fill-rule="evenodd" d="M42.83268948928713 56.6814820787072L37.062136559087484 62.47035641021449C36.6994219607327 61.90693346770893 34.67880366706504 59.28879520148225 34.67880366706504 59.28879520148225C34.937738734445794 59.026156602025175 35.21414164367366 58.78155990832079 35.50595735453133 58.55629382792287L37.18132889169132 60.79787174693975L42.1568381378201 55.80567642516928C42.4090943244946 56.07553178692744 42.6354056284256 56.36884162616409 42.83268948928713 56.68148207870721L42.83268948928713 56.6814820787072Z"/>
      </g>
      <g opacity="1">
        <path fill="rgb(63,61,86)" fill-opacity="1" opacity="1" fill-rule="evenodd" d="M34.42192363990172 123.23961884946057L0.25688002716344577 123.23961884946057C0.11585289225071226 123.23961884946057 0 123.12311968660032 0 122.98187733870779L0 88.18677338708322C0 88.04527329767996 0.11585289225071226 87.92903187633044 0.25688002716344577 87.92903187633044C0.39790716207617893 87.92903187633044 0.5137600543268915 88.04527329767996 0.5137600543268915 88.18677338708322L0.5137600543268915 122.72413582795502L34.42192363990172 122.72413582795502C34.56295077481446 122.72413582795502 34.67880366706517 122.84037724930454 34.67880366706517 122.98187733870779C34.67880366706517 123.12311968660032 34.56295077481446 123.23961884946057 34.42192363990172 123.23961884946057L34.42192363990172 123.23961884946057Z"/>
      </g>
      <g opacity="1">
        <path fill="rgb(63,61,86)" fill-opacity="1" opacity="1" fill-rule="evenodd" d="M5.5260009765625 120.00933837890625L12.04718017578125 120.00933837890625C12.63519287109375 120.008544921875 13.11859130859375 119.52349853515625 13.119140625 118.93377685546875L13.119140625 109.52777099609375C13.11859130859375 108.93804931640625 12.63519287109375 108.4530029296875 12.04718017578125 108.45220947265625L5.5260009765625 108.45220947265625C4.93798828125 108.45269775390625 4.45428466796875 108.93804931640625 4.45379638671875 109.52777099609375L4.45379638671875 118.93353271484375C4.45428466796875 119.52349853515625 4.93798828125 120.00885009765625 5.5260009765625 120.00933837890625ZM4.967529296875 109.52777099609375C4.968017578125 109.2208251953125 5.21978759765625 108.96795654296875 5.5260009765625 108.96771240234375L12.047119140625 108.96771240234375C12.35333251953125 108.96795654296875 12.6051025390625 109.2208251953125 12.6053466796875 109.52777099609375L12.6053466796875 118.93377685546875C12.6051025390625 119.24078369140625 12.35333251953125 119.49334716796875 12.047119140625 119.493896484375L5.5260009765625 119.493896484375C5.21978759765625 119.49334716796875 4.968017578125 119.24078369140625 4.967529296875 118.93377685546875L4.967529296875 109.52777099609375Z"/>
      </g>
      <g opacity="1">
        <path fill="rgb(63,61,86)" fill-opacity="1" opacity="1" fill-rule="evenodd" d="M19.39984130859375 120.00933837890625L25.40234375 120.00933837890625C26.13238525390625 120.008544921875 26.73297119140625 119.40570068359375 26.7337646484375 118.67315673828125L26.7337646484375 101.636474609375C26.73297119140625 100.90399169921875 26.13238525390625 100.3013916015625 25.40234375 100.30059814453125L19.39984130859375 100.30059814453125C18.6697998046875 100.3013916015625 18.0692138671875 100.90399169921875 18.06842041015625 101.636474609375L18.06842041015625 118.67315673828125C18.0692138671875 119.40570068359375 18.6697998046875 120.008544921875 19.39984130859375 120.00933837890625ZM18.58221435546875 101.636474609375C18.58270263671875 101.18646240234375 18.95159912109375 100.81634521484375 19.39984130859375 100.81610107421875L25.40240478515625 100.81610107421875C25.85064697265625 100.81634521484375 26.21954345703125 101.18646240234375 26.22003173828125 101.636474609375L26.22003173828125 118.6732177734375C26.21978759765625 119.12322998046875 25.85089111328125 119.49334716796875 25.40240478515625 119.49383544921875L19.39984130859375 119.49383544921875C18.95159912109375 119.49334716796875 18.58270263671875 119.12322998046875 18.58221435546875 118.6732177734375L18.58221435546875 101.636474609375Z"/>
      </g>
    </g>
  </g>
</svg>