<svg xmlns="http://www.w3.org/2000/svg" xmlns:xlink="http://www.w3.org/1999/xlink" height="133.14199999999937" width="245.20799999999895">
  <g opacity="1">
    <g opacity="1">
      <g opacity="1">
        <path fill="rgb(242,242,242)" fill-opacity="1" opacity="1" fill-rule="evenodd" d="M222.9665107181317 92.52358092356809L77.54739561546734 5.839768136931298L71.4810185873605 16.13881378969986L216.89977872355158 102.82262657633666L222.9665107181317 92.52358092356809Z"/>
      </g>
      <g opacity="1">
        <path fill="rgb(242,242,242)" fill-opacity="1" opacity="1" fill-rule="evenodd" d="M186.95338717298347 107.27190571209356L41.53462703679249 20.58809292545675L35.467895042212376 30.8871385782253L180.88665517840334 117.57095136486208L186.95338717298347 107.27190571209356Z"/>
      </g>
      <g opacity="1">
        <path fill="rgb(242,242,242)" fill-opacity="1" opacity="1" fill-rule="evenodd" d="M154.8008789910707 122.27983129770573L9.382118854879824 35.596375596071766L3.315741826772978 45.89506416383746L148.73450196296386 132.5788769504743L154.8008789910707 122.27983129770573Z"/>
      </g>
      <g opacity="1">
        <ellipse fill="rgb(63,61,86)" fill-opacity="1" opacity="1" rx="63.155634923391965" ry="63.5325637105812" cx="114.77840913038926" cy="63.5325637105812"/>
      </g>
      <g opacity="1">
        <g opacity="1">
          <path fill="rgb(161,212,127)" fill-opacity="0.3" opacity="1" fill-rule="evenodd" d="M103.51995849609398 63.80859375C103.51995849609398 70.021484375 108.60235595703148 75.1339111328125 114.77844238281273 75.1339111328125C120.95166015625023 75.1270751953125 126.02941894531273 70.01904296875 126.03656005859398 63.80859375C126.03656005859398 57.595703125 120.95416259765648 52.4832763671875 114.77844238281273 52.4832763671875C108.60235595703148 52.4832763671875 103.51995849609398 57.595703125 103.51995849609398 63.80859375ZM104.06939697265648 63.80859375C104.06939697265648 57.8988037109375 108.90332031250023 53.03564453125 114.77838134765648 53.03564453125C120.65057373046898 53.04248046875 125.48059082031273 57.9012451171875 125.48736572265648 63.80859375C125.48736572265648 69.71826171875 120.65307617187523 74.5814208984375 114.77838134765648 74.5814208984375C108.90332031250023 74.5814208984375 104.06939697265648 69.71826171875 104.06939697265648 63.80859375Z"/>
        </g>
        <g opacity="1">
          <path fill="rgb(161,212,127)" fill-opacity="0.3" opacity="1" fill-rule="evenodd" d="M93.36041259765648 63.80859375C93.36041259765648 75.6285400390625 103.02862548828148 85.3543701171875 114.77838134765648 85.3543701171875C126.52282714843773 85.3411865234375 136.18286132812523 75.6231689453125 136.19635009765648 63.80859375C136.19635009765648 51.9891357421875 126.52777099609398 42.2628173828125 114.77838134765648 42.2628173828125C103.02862548828148 42.2628173828125 93.36041259765648 51.9891357421875 93.36041259765648 63.80859375ZM93.90954589843773 63.80859375C93.90954589843773 52.2918701171875 103.33001708984398 42.815185546875 114.77838134765648 42.815185546875C126.22143554687523 42.828369140625 135.63409423828148 52.296875 135.64685058593773 63.80859375C135.64685058593773 75.3253173828125 126.22637939453148 84.802001953125 114.77838134765648 84.802001953125C103.33001708984398 84.802001953125 93.90954589843773 75.3253173828125 93.90954589843773 63.80859375Z"/>
        </g>
        <g opacity="1">
          <path fill="rgb(161,212,127)" fill-opacity="0.3" opacity="1" fill-rule="evenodd" d="M84.57360839843773 63.80859375C84.57360839843773 80.477294921875 98.20825195312523 94.193603515625 114.77844238281273 94.193603515625C131.34112548828148 94.1746826171875 144.96441650390648 80.4700927734375 144.98321533203148 63.80859375C144.98321533203148 47.1397705078125 131.34826660156273 33.4234619140625 114.77844238281273 33.4234619140625C98.20825195312523 33.4234619140625 84.57360839843773 47.1397705078125 84.57360839843773 63.80859375ZM85.12274169921898 63.80859375C85.12274169921898 47.443115234375 98.50958251953148 33.9759521484375 114.77844238281273 33.9759521484375C131.03979492187523 33.9945068359375 144.41564941406273 47.4498291015625 144.43371582031273 63.80859375C144.43371582031273 80.174560546875 131.04687500000023 93.6412353515625 114.77844238281273 93.6412353515625C98.50958251953148 93.6412353515625 85.12274169921898 80.174560546875 85.12274169921898 63.80859375Z"/>
        </g>
        <g opacity="1">
          <path fill="rgb(161,212,127)" fill-opacity="0.3" opacity="1" fill-rule="evenodd" d="M73.04077148437523 63.80859375C73.04077148437523 86.960205078125 91.76416015625023 105.7952880859375 114.77844238281273 105.7952880859375C137.79272460937523 105.7952880859375 156.51574707031273 86.960205078125 156.51574707031273 63.80859375C156.51574707031273 40.6573486328125 137.79272460937523 21.8221435546875 114.77844238281273 21.8221435546875C91.76416015625023 21.8221435546875 73.04077148437523 40.6573486328125 73.04077148437523 63.80859375ZM73.58990478515648 63.80859375C73.58990478515648 40.961669921875 92.06695556640648 22.3746337890625 114.77844238281273 22.3746337890625C137.48956298828148 22.3746337890625 155.96661376953148 40.961669921875 155.96661376953148 63.80859375C155.96661376953148 86.6556396484375 137.48956298828148 105.2430419921875 114.77844238281273 105.2430419921875C92.06695556640648 105.2430419921875 73.58990478515648 86.6556396484375 73.58990478515648 63.80859375Z"/>
        </g>
        <g opacity="1">
          <path fill="rgb(161,212,127)" fill-opacity="0.3" opacity="1" fill-rule="evenodd" d="M63.43005371093773 63.80859375C63.43005371093773 92.291015625 86.46490478515648 115.46337890625 114.77844238281273 115.46337890625C143.09161376953148 115.46337890625 166.12646484375023 92.291015625 166.12646484375023 63.80859375C166.12646484375023 35.3260498046875 143.09161376953148 12.154052734375 114.77844238281273 12.154052734375C86.46490478515648 12.154052734375 63.43005371093773 35.3260498046875 63.43005371093773 63.80859375ZM63.97918701171898 63.80859375C63.97918701171898 35.631103515625 86.76770019531273 12.70654296875 114.77844238281273 12.70654296875C142.78918457031273 12.70654296875 165.57733154296898 35.631103515625 165.57733154296898 63.80859375C165.57733154296898 91.986572265625 142.78918457031273 114.91064453125 114.77844238281273 114.91064453125C86.76770019531273 114.91064453125 63.97918701171898 91.986572265625 63.97918701171898 63.80859375Z"/>
        </g>
        <g opacity="1">
          <ellipse fill="rgb(161,212,127)" fill-opacity="0.3" opacity="1" rx="5.217297224055848" ry="5.248435372179202" cx="114.77840913038946" cy="63.53256371058127"/>
        </g>
        <g opacity="1">
          <ellipse fill="rgb(161,212,127)" fill-opacity="0.3" opacity="1" rx="5.217297224055862" ry="5.248435372179209" cx="128.23305833304346" cy="78.72510224267663"/>
        </g>
        <g opacity="1">
          <ellipse fill="rgb(161,212,127)" fill-opacity="0.3" opacity="1" rx="5.217297224055862" ry="5.248435372179209" cx="91.71268769759922" cy="76.51510315991587"/>
        </g>
        <g opacity="1">
          <ellipse fill="rgb(161,212,127)" fill-opacity="1" opacity="1" rx="2.4712765868741933" ry="2.4860257899790135" cx="230.1055964284467" cy="35.63351243636993"/>
        </g>
        <g opacity="1">
          <ellipse fill="rgb(161,212,127)" fill-opacity="1" opacity="1" rx="2.471276586874165" ry="2.4860257899790064" cx="213.6301825383034" cy="107.17656401632729"/>
        </g>
        <g opacity="1">
          <ellipse fill="rgb(161,212,127)" fill-opacity="1" opacity="1" rx="2.4712765868741933" ry="2.4860257899790206" cx="15.102403571552781" cy="47.23484709460395"/>
        </g>
      </g>
      <g opacity="1">
        <ellipse fill="rgb(47,46,65)" fill-opacity="1" opacity="1" rx="2.4712765868741933" ry="2.4860257899790206" cx="114.77840913038928" cy="63.53256371058133"/>
      </g>
      <g opacity="1">
        <ellipse fill="rgb(47,46,65)" fill-opacity="1" opacity="1" rx="2.4712765868741933" ry="2.4860257899790206" cx="91.71268769759912" cy="76.51510315991568"/>
      </g>
      <g opacity="1">
        <ellipse fill="rgb(47,46,65)" fill-opacity="1" opacity="1" rx="2.4712765868741933" ry="2.4860257899790206" cx="128.23305833304335" cy="79.00112894989498"/>
      </g>
      <g opacity="1">
        <path fill="rgb(47,46,65)" fill-opacity="1" opacity="1" fill-rule="evenodd" d="M114.91542618906975 63.67039852168888L114.36629305492806 63.67039852168888L114.36629305492806 35.218936748038004L223.3782718271197 35.218936748038004L223.3782718271197 35.77170433248033L114.91542618906975 35.77170433248033L114.91542618906975 63.67039852168888Z"/>
      </g>
      <g opacity="1">
        <path fill="rgb(47,46,65)" fill-opacity="1" opacity="1" fill-rule="evenodd" d="M222.96649169921898 35.6334228515625C222.96649169921898 39.5732421875 226.18920898437523 42.815185546875 230.10559082031273 42.815185546875C234.02050781250023 42.8109130859375 237.24078369140648 39.5714111328125 237.24499511718773 35.6334228515625C237.24499511718773 31.693359375 234.02227783203148 28.451416015625 230.10559082031273 28.451416015625C226.18920898437523 28.451416015625 222.96649169921898 31.693359375 222.96649169921898 35.6334228515625ZM223.51562500000023 35.633544921875C223.51562500000023 31.99658203125 226.49023437500023 29.00390625 230.10559082031273 29.00390625C233.71948242187523 29.0081787109375 236.69165039062523 31.998046875 236.69586181640648 35.633544921875C236.69586181640648 39.2701416015625 233.72088623046898 42.2628173828125 230.10559082031273 42.2628173828125C226.49023437500023 42.2628173828125 223.51562500000023 39.2701416015625 223.51562500000023 35.633544921875Z"/>
      </g>
      <g opacity="1">
        <path fill="rgb(47,46,65)" fill-opacity="1" opacity="1" fill-rule="evenodd" d="M206.49108886718773 107.176513671875C206.49108886718773 111.1163330078125 209.71380615234398 114.3582763671875 213.63018798828148 114.3582763671875C217.54510498046898 114.35400390625 220.76538085937523 111.114501953125 220.76959228515648 107.176513671875C220.76959228515648 103.2364501953125 217.54687500000023 99.9945068359375 213.63018798828148 99.9945068359375C209.71380615234398 99.9945068359375 206.49108886718773 103.2364501953125 206.49108886718773 107.176513671875ZM207.04022216796898 107.176513671875C207.04022216796898 103.53955078125 210.01519775390648 100.546875 213.63018798828148 100.546875C217.24407958984398 100.5511474609375 220.21624755859398 103.541015625 220.22045898437523 107.176513671875C220.22045898437523 110.8131103515625 217.24548339843773 113.8057861328125 213.63018798828148 113.8057861328125C210.01519775390648 113.8057861328125 207.04022216796898 110.8131103515625 207.04022216796898 107.176513671875Z"/>
      </g>
      <g opacity="1">
        <path fill="rgb(47,46,65)" fill-opacity="1" opacity="1" fill-rule="evenodd" d="M7.962951660156477 47.2347412109375C7.962951660156477 51.1749267578125 11.186035156250227 54.4168701171875 15.102386474609602 54.4168701171875C19.017303466797102 54.41259765625 22.237213134765852 51.173095703125 22.241821289062727 47.2347412109375C22.241821289062727 43.2950439453125 19.018737792968977 40.0531005859375 15.102386474609602 40.0531005859375C11.186035156250227 40.0531005859375 7.962951660156477 43.2950439453125 7.962951660156477 47.2347412109375ZM8.512084960937727 47.23486328125C8.512084960937727 43.5982666015625 11.487060546875227 40.6055908203125 15.102386474609602 40.6055908203125C18.715942382812727 40.60986328125 21.688446044922102 43.5997314453125 21.692687988281477 47.23486328125C21.692687988281477 50.871826171875 18.717712402343977 53.864501953125 15.102386474609602 53.864501953125C11.487060546875227 53.864501953125 8.512084960937727 50.871826171875 8.512084960937727 47.23486328125Z"/>
      </g>
      <g opacity="1">
        <path fill="rgb(47,46,65)" fill-opacity="1" opacity="1" fill-rule="evenodd" d="M91.98743174790667 76.51510315991578L91.43829861376499 76.51510315991578L91.43829861376499 48.61176686566986L21.962840600354525 47.510873801822505L21.971359795712896 46.95882038738591L91.98743174790667 48.06792640629927L91.98743174790667 76.51510315991578Z"/>
      </g>
      <g opacity="1">
        <path fill="rgb(47,46,65)" fill-opacity="1" opacity="1" fill-rule="evenodd" d="M206.76548591182228 107.45259072354565L127.95866924920927 107.45259072354565L127.95866924920927 79.00112894989479L128.50780238335096 79.00112894989479L128.50780238335096 106.90018022410618L206.76548591182228 106.90018022410618L206.76548591182228 107.45259072354565Z"/>
      </g>
      <g opacity="1">
        <rect fill="rgb(47,46,65)" fill-opacity="1" opacity="1" x="215.0031928568942" y="48.616051885704564" width="30.2048071431051" height="1.9336152905395858" rx="0" ry="0"/>
      </g>
      <g opacity="1">
        <rect fill="rgb(47,46,65)" fill-opacity="1" opacity="1" x="215.0031928568942" y="54.14051396510172" width="30.2048071431051" height="1.9336152905395716" rx="0" ry="0"/>
      </g>
      <g opacity="1">
        <rect fill="rgb(47,46,65)" fill-opacity="1" opacity="1" x="215.0031928568942" y="59.66533312950219" width="30.2048071431051" height="1.9336152905395716" rx="0" ry="0"/>
      </g>
      <g opacity="1">
        <rect fill="rgb(47,46,65)" fill-opacity="1" opacity="1" x="198.52777896675082" y="120.15910346566193" width="30.2048071431051" height="1.9336152905395716" rx="0" ry="0"/>
      </g>
      <g opacity="1">
        <rect fill="rgb(47,46,65)" fill-opacity="1" opacity="1" x="198.52777896675082" y="125.68356554505931" width="30.2048071431051" height="1.9336152905396" rx="0" ry="0"/>
      </g>
      <g opacity="1">
        <rect fill="rgb(47,46,65)" fill-opacity="1" opacity="1" x="198.52777896675082" y="131.20838470945978" width="30.2048071431051" height="1.9336152905395716" rx="0" ry="0"/>
      </g>
      <g opacity="1">
        <rect fill="rgb(47,46,65)" fill-opacity="1" opacity="1" x="2.2737367544323206e-13" y="60.493770336159514" width="30.20480714310527" height="1.9336152905395858" rx="0" ry="0"/>
      </g>
      <g opacity="1">
        <rect fill="rgb(47,46,65)" fill-opacity="1" opacity="1" x="2.2737367544323206e-13" y="66.01858950056044" width="30.20480714310527" height="1.9336152905395858" rx="0" ry="0"/>
      </g>
      <g opacity="1">
        <rect fill="rgb(47,46,65)" fill-opacity="1" opacity="1" x="2.2737367544323206e-13" y="71.54305157995759" width="30.20480714310527" height="1.9336152905395716" rx="0" ry="0"/>
      </g>
    </g>
  </g>
</svg>