<svg xmlns="http://www.w3.org/2000/svg" xmlns:xlink="http://www.w3.org/1999/xlink" height="116.3031005859375" width="193.43739884270303">
  <g opacity="1">
    <g opacity="1">
      <g opacity="1">
        <ellipse fill="rgb(248,107,117)" fill-opacity="1" opacity="1" rx="1.1929158773829354" ry="1.2018794162698363" cx="7.123978564271303" cy="8.312198042921924"/>
      </g>
      <g opacity="1">
        <ellipse fill="rgb(250,211,117)" fill-opacity="1" opacity="1" rx="1.1929158773829638" ry="1.2018794162698363" cx="10.702726196419624" cy="8.312198042921924"/>
      </g>
      <g opacity="1">
        <ellipse fill="rgb(139,204,85)" fill-opacity="1" opacity="1" rx="1.1929158773829354" ry="1.2018794162698363" cx="14.281473828568911" cy="8.312198042921924"/>
      </g>
      <g opacity="1">
        <rect fill="rgb(125,214,131)" fill-opacity="1" opacity="1" x="28.795283670061508" y="26.941328995104186" width="81.91355691362938" height="25.640094213756544" rx="0" ry="0"/>
      </g>
      <g opacity="1">
        <rect fill-opacity="0" stroke="rgb(63,61,86)" stroke-opacity="1" stroke-width="1" stroke-linecap="butt" stroke-linejoin="miter" opacity="1" x="2.352315054739165" y="4.305933322023293" width="144.74045978913142" height="86.53531797142833" rx="0" ry="0"/>
      </g>
      <g opacity="1">
        <path fill-opacity="0" stroke="rgb(63,61,86)" stroke-opacity="1" stroke-width="1" stroke-linecap="butt" stroke-linejoin="miter" opacity="1" fill-rule="evenodd" d="M2.352315054739165 10.859381152469723L191.08508378796353 10.859381152469723"/>
      </g>
      <g opacity="1">
        <ellipse fill-opacity="0" stroke="rgb(63,61,86)" stroke-opacity="1" stroke-width="1" stroke-linecap="butt" stroke-linejoin="miter" opacity="1" rx="1.192915877382971" ry="1.2018794162698372" cx="7.521617190065681" cy="7.510945098742757"/>
      </g>
      <g opacity="1">
        <ellipse fill-opacity="0" stroke="rgb(63,61,86)" stroke-opacity="1" stroke-width="1" stroke-linecap="butt" stroke-linejoin="miter" opacity="1" rx="1.192915877382962" ry="1.2018794162698372" cx="11.100364822214193" cy="7.510945098742757"/>
      </g>
      <g opacity="1">
        <ellipse fill-opacity="0" stroke="rgb(63,61,86)" stroke-opacity="1" stroke-width="1" stroke-linecap="butt" stroke-linejoin="miter" opacity="1" rx="1.192915877382939" ry="1.2018794162698372" cx="14.679112454362917" cy="7.510945098742757"/>
      </g>
      <g opacity="1">
        <rect fill-opacity="0" stroke="rgb(63,61,86)" stroke-opacity="1" stroke-width="1" stroke-linecap="butt" stroke-linejoin="miter" opacity="1" x="33.76576649249034" y="21.933498093980006" width="81.91355691362926" height="25.640094213756548" rx="0" ry="0"/>
      </g>
      <g opacity="1">
        <rect fill="rgb(242,242,242)" fill-opacity="1" opacity="1" x="18.456679399409154" y="63.79896442737936" width="109.7482607192316" height="3.3155846830163576" rx="0" ry="0"/>
      </g>
      <g opacity="1">
        <rect fill="rgb(242,242,242)" fill-opacity="1" opacity="1" x="18.456679399409154" y="71.75620741603075" width="109.7482607192316" height="3.3155846830163433" rx="0" ry="0"/>
      </g>
      <g opacity="1">
        <rect fill="rgb(242,242,242)" fill-opacity="1" opacity="1" x="18.456679399409154" y="79.71345040468032" width="109.7482607192316" height="3.3155846830164" rx="0" ry="0"/>
      </g>
      <g opacity="1">
        <rect fill-opacity="0" stroke="rgb(63,61,86)" stroke-opacity="1" stroke-width="1" stroke-linecap="butt" stroke-linejoin="miter" opacity="1" x="19.64959527679173" y="62.19645853902034" width="109.74826071923144" height="3.3155846830163576" rx="0" ry="0"/>
      </g>
      <g opacity="1">
        <rect fill-opacity="0" stroke="rgb(63,61,86)" stroke-opacity="1" stroke-width="1" stroke-linecap="butt" stroke-linejoin="miter" opacity="1" x="19.64959527679173" y="70.15370152767059" width="109.74826071923144" height="3.3155846830163576" rx="0" ry="0"/>
      </g>
      <g opacity="1">
        <rect fill-opacity="0" stroke="rgb(63,61,86)" stroke-opacity="1" stroke-width="1" stroke-linecap="butt" stroke-linejoin="miter" opacity="1" x="19.64959527679173" y="78.11094451632016" width="109.74826071923144" height="3.315584683016386" rx="0" ry="0"/>
      </g>
      <g opacity="1">
        <path fill="rgb(121,117,140)" fill-opacity="1" opacity="1" fill-rule="evenodd" d="M78.73789979257639 4.436537551924403L73.44135329699611 7.392760289476103L79.08980997640435 5.385621664305482L78.73789979257639 4.436537551924403Z"/>
      </g>
      <g opacity="1">
        <path fill="rgb(63,61,86)" fill-opacity="1" opacity="1" fill-rule="evenodd" d="M79.28584581891994 1.6401647767374672C80.06124113921885 1.3861675934324467 81.10305433879996 2.45864465921723 81.6108388639393 4.033106694530722C82.11822575045286 5.607568729844214 81.90071742214336 7.0918898089374585 81.12492446321866 7.345486365770399C80.34952914291975 7.599483549075419 79.30731830471282 6.527407109762728 78.7999314181993 4.952945074449236C78.29254453168573 3.3784830391357437 78.51005285999524 1.8941619600424988 79.28584581891994 1.6401647767374672L79.28584581891994 1.6401647767374672Z"/>
      </g>
      <g opacity="1">
        <path fill="rgb(63,61,86)" fill-opacity="1" opacity="1" fill-rule="evenodd" d="M84.16248592566207 0.1914994536589977C84.74741234420556 0 85.51366197611127 0.7471683704477532 85.87193437795196 1.858906830497356C86.23060441841845 2.9706452905469583 86.04610009604987 4.028699803336503 85.4611736775064 4.2201992569955005C84.87584962033712 4.411698710654498 84.10999762705718 3.664530340206745 83.75132758659069 2.5527918801571423C83.39305518474998 1.4410534201075396 83.57716186849278 0.3829989073179954 84.16248592566204 0.1914994536589977L84.16248592566207 0.1914994536589977Z"/>
      </g>
      <g opacity="1">
        <path fill="rgb(63,61,86)" fill-opacity="1" opacity="1" fill-rule="evenodd" d="M80.54596262406267 2.7607170191714205L84.05909988295544 1.4831191996765938L84.80586522219716 3.5667774810163864L81.40565733302996 5.880795983807904L80.54596262406267 2.7607170191714205Z"/>
      </g>
      <g opacity="1">
        <path fill="rgb(63,61,86)" fill-opacity="1" opacity="1" fill-rule="evenodd" d="M141.81447325786417 69.054443359375C147.07686339458292 69.054443359375 152.11812316020792 71.0732421875 155.76485167583292 74.6407470703125C162.24397765239542 80.9803466796875 162.95534239848917 90.873779296875 157.44289122661417 97.97607421875L171.43062316020792 111.6522216796875C171.59920226177042 111.81689453125 171.69344054302042 112.036865234375 171.69344054302042 112.265625C171.69344054302042 112.5068359375 171.58888732036417 112.737548828125 171.40395079692667 112.9041748046875L167.91829405864542 116.055908203125C167.74330626567667 116.214599609375 167.50911437114542 116.3031005859375 167.26576720317667 116.3031005859375C167.00966368755167 116.3031005859375 166.76393614848917 116.20458984375 166.58656798442667 116.03076171875L152.59926329692667 102.3544921875C144.79756651958292 107.278564453125 134.25301085552042 106.1824951171875 127.78340636333292 99.7752685546875C120.61995421489542 92.6910400390625 120.74403868755167 81.3873291015625 128.06770812114542 74.4444580078125C131.70058165630167 70.9967041015625 136.65315733989542 69.054443359375 141.81447325786417 69.054443359375ZM141.81331358989542 100.2667236328125C145.38966857036417 100.2667236328125 148.83046446880167 98.9635009765625 151.40791808208292 96.6318359375C154.11903868755167 94.1796875 155.65309630473917 90.790771484375 155.65309630473917 87.253173828125C155.65309630473917 83.889892578125 154.26656066020792 80.654541015625 151.78725157817667 78.2310791015625C149.17915831645792 75.6815185546875 145.57539855083292 74.2392578125 141.81331358989542 74.2392578125C134.22121153911417 74.2392578125 127.97389708598917 80.114013671875 127.97389708598917 87.253173828125C127.97389708598917 94.392333984375 134.22121153911417 100.2667236328125 141.81331358989542 100.2667236328125Z"/>
      </g>
      <g opacity="1">
        <path fill="rgb(63,61,86)" fill-opacity="1" opacity="1" fill-rule="evenodd" d="M131.56617942247942 83.62877291641553C130.00942420249464 83.62877291641553 130.00664073211408 85.90272877199807 131.56617942247942 85.90272877199807C133.125320474219 85.90272877199807 133.1241275583416 83.62877291641553 131.56617942247942 83.62877291641553L131.56617942247942 83.62877291641553Z"/>
      </g>
      <g opacity="1">
        <path fill="rgb(63,61,86)" fill-opacity="1" opacity="1" fill-rule="evenodd" d="M142.4145564113999 76.34738678618064C138.22583112728256 76.25804708290457 134.41287434454088 78.23473809619637 132.3869055461188 81.22301095151526C131.72563251142287 82.19573202574965 133.60367974104943 83.05587706132677 134.26097638948744 82.08756287828538C135.93940902896526 79.61770067785086 139.12886844646147 78.04444052195366 142.5752024162208 78.13097583992509C146.1897375246911 78.21670990495234 149.4794018758875 80.16095017400484 151.22066141824084 82.8595700900027C151.88233209156257 83.8835713526646 153.61206011376785 82.95211480505549 152.95595638120722 81.93412293947493C150.84250708511044 78.65779965072336 146.74245521454523 76.43993150123343 142.4145564113999 76.34738678618065L142.4145564113999 76.34738678618064Z"/>
      </g>
    </g>
  </g>
</svg>