<svg xmlns="http://www.w3.org/2000/svg" xmlns:xlink="http://www.w3.org/1999/xlink" height="129.36171333333346" width="135.89970684133982">
  <defs>
    <linearGradient id="linearGradient-16" x1="0.48443885082117466" y1="0.9985041429374519" x2="0.5155766870212402" y2="0.0015007454843201885">
      <stop offset="0" stop-color="rgb(128,128,128)" stop-opacity="0.12"/>
      <stop offset="0.54" stop-color="rgb(128,128,128)" stop-opacity="0.06"/>
      <stop offset="1" stop-color="rgb(128,128,128)" stop-opacity="0.05"/>
    </linearGradient>
    <linearGradient id="linearGradient-22" x1="0.7554934359649118" y1="0.9551848104192253" x2="0.2444497428122959" y2="0.04480123611402826">
      <stop offset="0" stop-color="rgb(128,128,128)" stop-opacity="0.12"/>
      <stop offset="0.54" stop-color="rgb(128,128,128)" stop-opacity="0.06"/>
      <stop offset="1" stop-color="rgb(128,128,128)" stop-opacity="0.05"/>
    </linearGradient>
    <linearGradient id="linearGradient-28" x1="0.8240624881779545" y1="0.9260867869270422" x2="0.17593031592494923" y2="0.07390813822791249">
      <stop offset="0" stop-color="rgb(128,128,128)" stop-opacity="0.12"/>
      <stop offset="0.54" stop-color="rgb(128,128,128)" stop-opacity="0.06"/>
      <stop offset="1" stop-color="rgb(128,128,128)" stop-opacity="0.05"/>
    </linearGradient>
    <linearGradient id="linearGradient-34" x1="0.8541080784624899" y1="0.9069740726126675" x2="0.14588608702755065" y2="0.09302592738733277">
      <stop offset="0" stop-color="rgb(128,128,128)" stop-opacity="0.12"/>
      <stop offset="0.54" stop-color="rgb(128,128,128)" stop-opacity="0.06"/>
      <stop offset="1" stop-color="rgb(128,128,128)" stop-opacity="0.05"/>
    </linearGradient>
  </defs>
  <g opacity="1">
    <g opacity="1">
      <g opacity="1">
        <path fill="rgb(125,214,131)" fill-opacity="1" opacity="1" fill-rule="evenodd" d="M49.589888368575224 6.377672494081086C49.19288600031561 4.619253604367274 47.44675463106135 3.514649481583831 45.69286267794374 3.912676544977292L2.8556523434679035 13.632609279379848C1.1017603903502928 14.030393198568433 0 15.781274617930864 0.39700236825961455 17.53969350764468L15.125862986165018 82.78817032061073C15.5226228361789 84.54658921032454 17.268996723678885 85.65119333310798 19.0228886767965 85.25316626971454L61.86009901127233 75.53347667951685C63.613990964389956 75.13544961612341 64.71575135474022 73.38481134096583 64.31874898648061 71.62614930704716L49.58988836857521 6.377672494081086L49.589888368575224 6.377672494081086Z"/>
      </g>
      <g opacity="1">
        <ellipse fill="rgb(255,255,255)" fill-opacity="1" opacity="1" rx="1.455109474378626" ry="1.4588652292979951" cx="4.626035537295431" cy="23.976693187717043"/>
      </g>
      <g opacity="1">
        <ellipse fill="rgb(255,255,255)" fill-opacity="1" opacity="1" rx="1.455109474378558" ry="1.4588652292979258" cx="6.081145011673696" cy="29.32586569514278"/>
      </g>
      <g opacity="1">
        <ellipse fill="rgb(255,255,255)" fill-opacity="1" opacity="1" rx="1.455109474378558" ry="1.4588652292979276" cx="15.53935659513422" cy="68.47208268130446"/>
      </g>
      <g opacity="1">
        <ellipse fill="rgb(255,255,255)" fill-opacity="1" opacity="1" rx="1.4551094743785589" ry="1.4588652292979276" cx="16.99446606951267" cy="73.82125518873015"/>
      </g>
      <g opacity="1">
        <path fill="rgb(245,245,245)" fill-opacity="1" opacity="1" fill-rule="evenodd" d="M45.51194406662939 31.048299242533872L15.974191809727927 37.750569250133594L17.08832063061043 42.68615346505348L46.62607288751189 35.98412660165864L45.51194406662939 31.048299242533872Z"/>
      </g>
      <g opacity="1">
        <path fill="rgb(63,61,86)" fill-opacity="1" opacity="1" fill-rule="evenodd" d="M98.7638579457244 0L17.629621355079053 30.69476756863404L54.76547025069423 129.36171333333346L135.89970684133954 98.66694576469942L98.7638579457244 0Z"/>
      </g>
      <g opacity="1">
        <path fill="rgb(125,214,131)" fill-opacity="1" opacity="1" fill-rule="evenodd" d="M97.43316033140505 84.82474618071058L60.9979466477032 98.60883429973228L61.564954306219384 100.1153557931873L97.99992547167551 86.33102452996073L97.43316033140505 84.82474618071058Z"/>
      </g>
      <g opacity="1">
        <path fill="rgb(125,214,131)" fill-opacity="1" opacity="1" fill-rule="evenodd" d="M124.12326334694717 85.0523291564806L64.3997500805541 107.64699068364263L64.96675773907027 109.15351217709767L124.69027100546337 86.55885064993564L124.12326334694717 85.0523291564806Z"/>
      </g>
      <g opacity="1">
        <path fill="rgb(125,214,131)" fill-opacity="1" opacity="1" fill-rule="evenodd" d="M120.72145991409633 76.01417277257053L105.32106627376538 81.84063735418172L105.88807393228154 83.34691570343189L121.28846757261249 77.52069426602557L120.72145991409633 76.01417277257053Z"/>
      </g>
      <g opacity="1">
        <path fill="rgb(125,214,131)" fill-opacity="1" opacity="1" fill-rule="evenodd" d="M78.09936326358256 97.30169105428092L62.69896962325129 103.12791249168725L63.265734763521735 104.6344339851423L78.66612840385301 98.80796940353109L78.09936326358256 97.30169105428092Z"/>
      </g>
      <g opacity="1">
        <path fill="rgb(125,214,131)" fill-opacity="1" opacity="1" fill-rule="evenodd" d="M100.26092307661413 88.91759258150603L84.86028691803722 94.74381401891229L85.4272945765534 96.25009236816244L100.82768821688455 90.42387093075618L100.26092307661413 88.91759258150603Z"/>
      </g>
      <g opacity="1">
        <path fill="rgb(125,214,131)" fill-opacity="1" opacity="1" fill-rule="evenodd" d="M122.42224037139925 80.53325096452545L107.02184673106808 86.35971554613664L107.58885438958426 87.86599389538681L122.98924802991542 82.03977245798049L122.42224037139925 80.53325096452545Z"/>
      </g>
      <g opacity="1">
        <path fill="rgb(125,214,131)" fill-opacity="1" opacity="1" fill-rule="evenodd" d="M89.61194690662002 30.678476906907065L44.53774827353277 47.73115257217089L50.774104962473515 64.30118699074197L95.84854611380648 47.24851132547815L89.61194690662002 30.678476906907065Z"/>
      </g>
      <g opacity="1">
        <path fill="url(#linearGradient-16)" opacity="1" fill-rule="evenodd" d="M106.82007155062085 46.19788521617886L106.33406498617842 95.78763209047517L121.4562901986575 95.93667948806848L121.94229676309993 46.34693261377216L106.82007155062085 46.19788521617886Z"/>
      </g>
      <g opacity="1">
        <path fill="rgb(224,224,224)" fill-opacity="1" opacity="1" fill-rule="evenodd" d="M121.69129037876976 46.67614986718362L107.31262610769815 46.534396795736825L106.83316753589042 95.46084627911253L121.21158928871631 95.6025993505593L121.69129037876976 46.67614986718362Z"/>
      </g>
      <g opacity="1">
        <path fill="rgb(77,138,240)" fill-opacity="1" opacity="1" fill-rule="evenodd" d="M119.58962726127562 47.44229725676941L109.42544506449576 47.34212184435762L109.32552754725509 57.53253861520873L119.48970974403498 57.632714027620516L119.58962726127562 47.44229725676941Z"/>
      </g>
      <g opacity="1">
        <path fill="rgb(77,138,240)" fill-opacity="0.5" opacity="1" fill-rule="evenodd" d="M119.469095693148 59.745394023849386L109.30491349636816 59.6452186114376L109.20499597912749 69.8356353822887L119.36917817590734 69.9358107947005L119.469095693148 59.745394023849386Z"/>
      </g>
      <g opacity="1">
        <path fill="rgb(77,138,240)" fill-opacity="0.3" opacity="1" fill-rule="evenodd" d="M119.3485641250205 72.04824764672347L109.18438192824067 71.94831537851655L109.084464411 82.13873214936787L119.24864660777983 82.23866441757477L119.3485641250205 72.04824764672347Z"/>
      </g>
      <g opacity="1">
        <path fill="url(#linearGradient-22)" opacity="1" fill-rule="evenodd" d="M105.88395112210456 49.046805864792546L91.48346020891722 53.67773039099404L106.53462757539751 100.72443202641918L120.93511848858485 96.09375064442256L105.88395112210456 49.046805864792546Z"/>
      </g>
      <g opacity="1">
        <path fill="rgb(245,245,245)" fill-opacity="1" opacity="1" fill-rule="evenodd" d="M105.74862594098708 49.43778174624458L92.05653082357628 53.84088015247071L106.90568049136378 100.25564999940492L120.59777560877458 95.85255159317879L105.74862594098708 49.43778174624458Z"/>
      </g>
      <g opacity="1">
        <path fill="rgb(255,82,82)" fill-opacity="1" opacity="1" fill-rule="evenodd" d="M103.99036865944574 50.82929603078993L94.31146547237108 53.94178499749711L97.41594153595773 63.645913358582206L107.09484472303238 60.533181247670136L103.99036865944574 50.82929603078993Z"/>
      </g>
      <g opacity="1">
        <path fill="rgb(255,82,82)" fill-opacity="0.5" opacity="1" fill-rule="evenodd" d="M107.73848814719923 62.54495639887182L98.05958496012465 65.65768850978388L101.16406102371128 75.36157372666408L110.84320672903159 72.2490847599569L107.73848814719923 62.54495639887182Z"/>
      </g>
      <g opacity="1">
        <path fill="rgb(255,82,82)" fill-opacity="0.3" opacity="1" fill-rule="evenodd" d="M111.48660763495306 74.26085991115883L101.80770444787845 77.37334887786604L104.91218051146508 87.0772340947463L114.59132621678542 83.9647451280391L111.48660763495306 74.26085991115883Z"/>
      </g>
      <g opacity="1">
        <path fill="url(#linearGradient-28)" opacity="1" fill-rule="evenodd" d="M96.94157584731052 52.430157475739406L83.77623035962483 59.891280546778944L108.02659982312638 102.902517813761L121.19194531081206 95.44163788692634L96.94157584731052 52.430157475739406Z"/>
      </g>
      <g opacity="1">
        <path fill="rgb(245,245,245)" fill-opacity="1" opacity="1" fill-rule="evenodd" d="M96.88846435149615 52.84131432619688L84.37064257990892 59.935289647863094L108.29531003939536 102.36930257245288L120.8131318109826 95.27508410658177L96.88846435149615 52.84131432619688Z"/>
      </g>
      <g opacity="1">
        <path fill="rgb(105,240,174)" fill-opacity="1" opacity="1" fill-rule="evenodd" d="M95.44232805220979 54.56472045040732L86.59356482026817 59.579569676119085L91.59526112019867 68.45117227968493L100.44426687038604 63.436323053973155L95.44232805220979 54.56472045040732Z"/>
      </g>
      <g opacity="1">
        <path fill="rgb(105,240,174)" fill-opacity="0.5" opacity="1" fill-rule="evenodd" d="M101.48103237087979 65.27546581970796L92.63226913893823 70.29031504541967L97.63420795711443 79.16191764898542L106.48297118905599 74.14706842327371L101.48103237087979 65.27546581970796Z"/>
      </g>
      <g opacity="1">
        <path fill="rgb(105,240,174)" fill-opacity="0.3" opacity="1" fill-rule="evenodd" d="M107.5199792077965 75.98645433321383L98.6712159758548 81.00130355892558L103.67315479403108 89.87290616249138L112.52191802597275 84.85805693677962L107.5199792077965 75.98645433321383Z"/>
      </g>
      <g opacity="1">
        <path fill="url(#linearGradient-34)" opacity="1" fill-rule="evenodd" d="M91.65516312689296 56.16217787648861L79.52706817619344 65.219542652585L108.9649029158545 104.84280856872745L121.09324038479973 95.78568693683593L91.65516312689296 56.16217787648861Z"/>
      </g>
      <g opacity="1">
        <path fill="rgb(255,255,255)" fill-opacity="1" opacity="1" fill-rule="evenodd" d="M91.65395053566488 56.57673874581417L80.12220795121482 65.18842019436003L109.16498046858217 104.27992973442332L120.69672305303223 95.66824828587747L91.65395053566488 56.57673874581417Z"/>
      </g>
      <g opacity="1">
        <path fill="rgb(125,214,131)" fill-opacity="1" opacity="1" fill-rule="evenodd" d="M90.43287116841543 58.469859525033144L82.28110537470104 64.55746098268865L88.35303469303702 72.73026714142073L96.50480048675139 66.64266568376522L90.43287116841543 58.469859525033144Z"/>
      </g>
      <g opacity="1">
        <path fill="rgb(125,214,131)" fill-opacity="0.5" opacity="1" fill-rule="evenodd" d="M97.76371270033505 68.33689450339L89.61170438837485 74.42473910525038L95.68387622495662 82.59754526398247L103.8356420186711 76.50994380632694L97.76371270033505 68.33689450339Z"/>
      </g>
      <g opacity="1">
        <path fill="rgb(125,214,131)" fill-opacity="0.3" opacity="1" fill-rule="evenodd" d="M105.09431171400826 78.20417262595134L96.94254592029381 84.29177408360685L103.01447523862981 92.46458024233894L111.16624103234423 86.3769787846834L105.09431171400826 78.20417262595134Z"/>
      </g>
    </g>
  </g>
</svg>