<svg xmlns="http://www.w3.org/2000/svg" xmlns:xlink="http://www.w3.org/1999/xlink" height="60" width="51.4285888671875">
  <g opacity="1">
    <path fill="rgb(131,136,133)" fill-opacity="1" opacity="1" fill-rule="evenodd" d="M4.674102783203125 53.0089111328125L0 0L51.4285888671875 0L46.75445556640625 53.0089111328125L25.71429443359375 60L4.674102783203125 53.0089111328125ZM41.2901611328125 17.04913330078125L41.93304443359375 10.71429443359375L9.49554443359375 10.71429443359375L10.2723388671875 17.04913330078125L26.732177734375 17.04913330078125L25.86163330078125 17.41070556640625L10.848236083984375 23.6651611328125L11.330352783203125 29.8660888671875L11.357147216796875 29.8526611328125L11.357147216796875 29.8660888671875L33.62945556640625 29.93304443359375L33.1339111328125 38.18304443359375L25.80804443359375 40.24554443359375L18.763397216796875 38.46429443359375L18.3348388671875 33.3348388671875L11.785736083984375 33.3348388671875L12.642852783203125 43.232177734375L25.875 47.14288330078125L39.02679443359375 43.29913330078125L40.7410888671875 23.6651611328125L25.80804443359375 23.6651611328125L25.84820556640625 23.65179443359375L41.2901611328125 17.04913330078125Z"/>
  </g>
</svg>