<svg xmlns="http://www.w3.org/2000/svg" xmlns:xlink="http://www.w3.org/1999/xlink" height="60" width="60">
  <g opacity="1">
    <path fill="rgb(247,224,24)" fill-opacity="1" opacity="1" fill-rule="evenodd" d="M53.5714111328125 0L6.428558349609375 0C2.87945556640625 0 0 2.87945556640625 0 6.4285888671875L0 53.5714111328125C0 57.12054443359375 2.87945556640625 60 6.428558349609375 60L53.5714111328125 60C57.12054443359375 60 60 57.12054443359375 60 53.5714111328125L60 6.4285888671875C60 2.87945556640625 57.12054443359375 0 53.5714111328125 0ZM35.71875 49.5401611328125C37.3660888671875 52.80804443359375 40.75445556640625 55.299072265625 45.9910888671875 55.299072265625C51.3348388671875 55.299072265625 55.32586669921875 52.51336669921875 55.32586669921875 47.45086669921875C55.32586669921875 42.736572265625 52.6339111328125 40.6339111328125 47.83929443359375 38.58477783203125L46.43304443359375 37.98211669921875C44.0089111328125 36.924072265625 42.96429443359375 36.24102783203125 42.96429443359375 34.55352783203125C42.96429443359375 33.1875 44.0089111328125 32.142822265625 45.65625 32.142822265625C47.27679443359375 32.142822265625 48.3214111328125 32.82586669921875 49.28570556640625 34.55352783203125L53.6785888671875 31.74102783203125C51.83038330078125 28.47320556640625 49.2589111328125 27.2276611328125 45.66961669921875 27.2276611328125C40.6473388671875 27.2276611328125 37.41961669921875 30.44195556640625 37.41961669921875 34.674072265625C37.41961669921875 39.267822265625 40.11163330078125 41.45086669921875 44.18304443359375 43.17852783203125L45.58929443359375 43.78125C48.17413330078125 44.91961669921875 49.70086669921875 45.6026611328125 49.70086669921875 47.53125C49.70086669921875 49.15179443359375 48.20086669921875 50.31695556640625 45.87054443359375 50.31695556640625C43.09820556640625 50.31695556640625 41.51788330078125 48.85711669921875 40.3125 46.88836669921875L35.71875 49.5401611328125ZM32.65179443359375 46.794677734375C32.65179443359375 52.63397216796875 29.22320556640625 55.29913330078125 24.227691650390625 55.29913330078125C19.71429443359375 55.29913330078125 17.102691650390625 52.96875 15.763397216796875 50.14288330078125L20.357147216796875 47.37054443359375C21.2410888671875 48.9375 22.044647216796875 50.263427734375 23.986602783203125 50.263427734375C25.8348388671875 50.263427734375 27.013427734375 49.54022216796875 27.013427734375 46.71429443359375L27.013427734375 27.54913330078125L32.65179443359375 27.54913330078125L32.65179443359375 46.794677734375Z"/>
  </g>
</svg>