<svg xmlns="http://www.w3.org/2000/svg" xmlns:xlink="http://www.w3.org/1999/xlink" height="78.1600341796875" width="79.52100000000883">
  <g>
    <path fill="rgb(131,136,133)" fill-opacity="1" opacity="1" fill-rule="evenodd" d="M62.98742871094146 62.52801513671875C65.76086621094146 61.3780517578125 69.06762890625396 60.959716796875 73.33423046875396 61.06396484375C73.17395214844146 60.0185546875 70.50744824219146 58.71136474609375 69.65405468750396 58.08392333984375C67.94726757812896 56.8818359375 66.13403515625396 55.62646484375 64.32068066406646 54.5289306640625C63.36096386719146 53.9542236328125 61.70739941406646 53.5355224609375 60.64050488281646 53.06524658203125C59.20044140625396 52.49017333984375 56.00061230469146 51.9146728515625 55.20044140625396 50.81719970703125C53.60034375000396 48.778076171875 52.53393750000396 46.26824951171875 51.41369824219146 43.8114013671875C50.29419140625396 41.302001953125 48.90771679687896 38.6878662109375 47.78711132812896 36.1258544921875C47.20056347656646 34.87152099609375 46.93408398437896 33.77294921875 46.29406933594146 32.5709228515625C42.40014843750396 25.1993408203125 36.64074902344146 19.030120849609375 29.653932617191458 14.690887451171875C27.360231445316458 13.27911376953125 24.800416992191458 11.971893310546875 21.973512695316458 11.083343505859375C20.373292968753958 10.613006591796875 18.453737304691458 10.874237060546875 16.746828125003958 10.508453369140625L15.626588867191458 10.508453369140625C14.666872070316458 10.2470703125 13.866823242191458 9.253662109375 13.120363281253958 8.73077392578125C11.466798828128958 7.632965087890625 9.813600585941458 6.900482177734375 7.839967773441458 6.11663818359375C7.147218750003958 5.802978515625 5.173585937503958 5.070953369140625 4.480226562503958 5.646453857421875C4.053102539066458 5.751007080078125 3.840211914066458 5.90753173828125 3.733522460941458 6.325897216796875C3.306764648441458 6.953369140625 3.680299804691458 7.894500732421875 3.946779296878958 8.469390869140625C4.746950195316458 10.1422119140625 5.866945312503958 11.13592529296875 6.880250976566458 12.547393798828125C7.787233398441458 13.802337646484375 8.906740234378958 15.213470458984375 9.546876953128958 16.57281494140625C10.933351562503958 19.5006103515625 11.573488281253958 22.7421875 12.853639648441458 25.66998291015625C13.333375976566458 26.76824951171875 14.080446289066458 28.022552490234375 14.773561523441458 29.015960693359375C15.359987304691458 29.799957275390625 16.427003906253958 30.375152587890625 16.747194335941458 31.368560791015625C17.265626953128958 32.21588134765625 16.313722656253958 34.6414794921875 15.735109375003958 36.11572265625C15.599611328128958 36.46112060546875 15.484499023441458 36.7542724609375 15.413698242191458 36.96270751953125C14.026491210941458 41.24969482421875 14.293214843753958 47.2098388671875 15.893434570316458 50.92156982421875C16.533693359378958 52.385498046875 17.120485351566458 54.11041259765625 18.826662109378958 54.52923583984375C18.933473632816458 54.424072265625 18.827028320316458 54.47698974609375 19.040529296878958 54.424072265625C19.413820312503958 51.54888916015625 19.520753906253958 48.778076171875 20.533693359378958 46.53009033203125C21.120363281253958 45.11859130859375 22.293581054691458 44.12506103515625 23.093629882816458 42.97509765625C23.626710937503958 43.2884521484375 23.626710937503958 44.2291259765625 23.947023437503958 44.8570556640625C24.640138671878958 46.477783203125 25.387208984378958 48.2554931640625 26.240358398441458 49.875732421875C28.000246093753958 53.221923828125 29.974123046878958 56.4630126953125 32.21386914062896 59.39111328125C32.96032910156646 60.436767578125 34.02734570312896 61.587158203125 34.98730664062896 62.5277099609375C35.41357617187896 62.89410400390625 35.89367871094146 63.1029052734375 36.21362500000396 63.57354736328125L36.32068066406646 63.57354736328125L36.32068066406646 63.73065185546875C34.72046093750396 63.15545654296875 33.70739941406646 61.53460693359375 32.42688183594146 60.59393310546875C30.026857421878958 58.81622314453125 27.147096679691458 56.149658203125 25.493654296878958 53.588134765625C24.800172851566458 52.1243896484375 24.053712890628958 50.71234130859375 23.307008789066458 49.2489013671875L23.307008789066458 49.14404296875C22.987306640628958 49.5623779296875 23.093996093753958 49.97998046875 22.933351562503958 50.60809326171875C22.240480468753958 53.22222900390625 22.773927734378958 56.2022705078125 20.373537109378958 57.14306640625C17.653566406253958 58.2413330078125 15.626588867191458 55.36505126953125 14.773561523441458 54.0584716796875C12.053712890628958 49.71923828125 11.306886718753958 42.39990234375 13.226686523441458 36.4920654296875C13.653810546878958 35.1851806640625 13.707399414066458 33.6165771484375 14.453859375003958 32.5709228515625C14.293458984378958 31.630096435546875 13.546999023441458 31.368255615234375 13.120363281253958 30.793365478515625C12.373537109378958 29.799957275390625 11.733766601566458 28.6500244140625 11.146974609378958 27.552215576171875C10.026613281253958 25.408447265625 9.227174804691458 22.84613037109375 8.373415039066458 20.54644775390625C8.000001953128958 19.60546875 7.893678710941458 18.663726806640625 7.520265625003958 17.775482177734375C6.880250976566458 16.415985107421875 5.707277343753958 15.056793212890625 4.799928710941458 13.8546142578125C4.592042968753958 13.562042236328125 4.316652343753958 13.222900390625 4.009767578128958 12.844879150390625C2.506105468753958 10.992889404296875 0.24414257812895812 8.20697021484375 1.4401875000039581 5.384918212890625C3.680177734378958 0 11.520753906253958 4.077545166015625 14.560182617191458 5.959808349609375C15.307008789066458 6.430450439453125 16.160402343753958 7.423553466796875 17.013795898441458 7.789642333984375C18.347047851566458 7.84222412109375 19.680788085941458 7.94647216796875 21.013673828128958 7.999053955078125C23.520387695316458 8.573944091796875 25.867067382816458 9.044403076171875 27.840578125003958 10.1422119140625C37.01379589844146 15.422882080078125 42.98718457031646 20.80780029296875 48.48059277344146 29.695709228515625C49.65417675781646 31.5775146484375 50.24084667969146 33.6165771484375 51.20031933594146 35.65582275390625C52.53393750000396 38.6878662109375 54.02771191406646 41.876708984375 55.57397656250396 44.75250244140625C56.26709179687896 46.11199951171875 56.80041699219146 47.6280517578125 57.76086621094146 48.778076171875C58.13391308594146 49.30084228515625 59.20092968750396 49.45751953125 59.84045605469146 49.771484375C61.60046582031646 50.6600341796875 63.73388867187896 51.33978271484375 65.38757519531646 52.385498046875C68.48071484375396 54.267578125 71.46765332031646 56.51531982421875 74.18762402344146 58.81622314453125C75.20117382812896 59.705078125 75.89453320312896 60.959716796875 76.85412792969146 61.90081787109375L76.85412792969146 62.37115478515625C76.00097851562896 62.632568359375 75.14746289062896 62.89410400390625 74.29431347656646 63.10321044921875C72.42749218750396 63.57366943359375 70.77429394531646 63.46881103515625 68.96093945312896 63.93975830078125C67.84057812500396 64.25341796875 66.45398144531646 64.67181396484375 65.28076367187896 64.7763671875C65.33398632812896 64.82861328125 65.38757519531646 64.880615234375 65.38757519531646 64.880615234375C66.08069042969146 66.81524658203125 69.81433300781646 68.383544921875 71.52099804687896 69.5338134765625C73.60083203125396 70.99755859375 75.52087597656646 72.775390625 77.06738476562896 74.81402587890625C77.60083203125396 75.3367919921875 78.13476757812896 75.80743408203125 78.66760449219146 76.330322265625C79.04077343750396 76.85308837890625 79.14734082031646 77.53253173828125 79.52099804687896 78.00347900390625L79.52099804687896 78.1600341796875C78.77392773437896 77.89892578125 78.40088085937896 77.21856689453125 77.81421093750396 76.80084228515625C76.64062695312896 76.016845703125 75.46814160156646 75.0750732421875 74.29431347656646 74.34368896484375C72.26782421875396 73.0887451171875 69.92090039062896 72.3570556640625 67.84057812500396 71.10223388671875C66.66760449219146 70.3702392578125 65.54724316406646 69.5338134765625 64.42737011719146 68.697509765625C63.41394238281646 67.9652099609375 62.29467968750396 66.55340576171875 61.65405468750396 65.508056640625C61.28064160156646 64.93316650390625 61.22729687500396 64.25341796875 60.80066113281646 63.835205078125C60.90735058594146 62.8416748046875 62.18737988281646 62.84149169921875 62.98742871094146 62.52801513671875ZM16.746828125003958 15.893218994140625C17.386964843753958 15.736541748046875 18.026613281253958 15.631378173828125 18.933107421878958 15.631378173828125C19.359743164066458 16.050048828125 20.053590820316458 16.311126708984375 20.373170898441458 16.8343505859375C20.640016601566458 17.200286865234375 20.693361328128958 17.566375732421875 21.013307617191458 17.9320068359375C21.013307617191458 19.186920166015625 20.640260742191458 20.023193359375 19.893190429691458 20.546417236328125C19.893190429691458 20.546417236328125 19.839967773441458 20.598388671875 19.786867187503958 20.650970458984375C19.359743164066458 19.81439208984375 18.986818359378958 18.977508544921875 18.559694335941458 18.141265869140625C18.026613281253958 17.4095458984375 17.280397460941458 16.8343505859375 16.853517578128958 15.997772216796875L16.746828125003958 15.997772216796875L16.746828125003958 15.893218994140625Z"/>
  </g>
</svg>