<svg xmlns="http://www.w3.org/2000/svg" xmlns:xlink="http://www.w3.org/1999/xlink" height="64.6000389638582" width="122.00000000000182">
  <g opacity="1">
    <path fill="rgb(131,136,133)" fill-opacity="1" opacity="1" fill-rule="evenodd" d="M61 0.000002342764446439105C27.3165283203125 0.000002342764446439105 0 14.451540428701946 0 32.299990135733196C0 50.148500877920696 27.3165283203125 64.6000389638582 61 64.6000389638582C94.6834716796875 64.6000389638582 122 50.148500877920696 122 32.299990135733196C122 14.451540428701946 94.6834716796875 0.000002342764446439105 61 0.000002342764446439105ZM61 3.2242455068269464C93.673095703125 3.2242455068269464 118.7974853515625 17.080812889639446 118.7974853515625 32.299990135733196C118.7974853515625 47.519228416983196 93.654052734375 61.375795799795696 61 61.375795799795696C28.326904296875 61.375795799795696 3.2025146484375 47.519228416983196 3.2025146484375 32.299990135733196C3.2025146484375 17.080812889639446 28.345947265625 3.2242455068269464 61 3.2242455068269464ZM60.923828125 9.404055077139446L53.9659423828125 9.404055077139446L47.7325439453125 41.761660057608196L54.6903076171875 41.761660057608196L58.2740478515625 23.222231346670696C59.179931640625 23.222231346670696 60.0009765625 23.216310936514446 60.7452392578125 23.211000877920696C64.65234375 23.182924706045696 66.445068359375 23.170046288076946 67.3096923828125 24.105043846670696C68.1748046875 25.038332420889446 67.975830078125 26.047182518545696 66.3065185546875 34.507692772451946C65.9161376953125 36.486574608389446 65.4453125 38.873110252920696 64.8887939453125 41.761660057608196L71.94189453125 41.761660057608196C72.455322265625 39.109316307608196 72.920654296875 36.808840233389446 73.3260498046875 34.804506737295696C75.329345703125 24.901491600576946 75.8704833984375 22.226320702139446 73.5240478515625 20.055544334951946C71.1934814453125 17.892214256826946 66.69873046875 17.936525780264446 61.630615234375 17.986574608389446C60.853759765625 17.994204002920696 60.0634765625 18.002016502920696 59.265380859375 18.002016502920696L60.923828125 9.404055077139446ZM18.56689453125 50.398012596670696L25.5628662109375 50.398012596670696L27.2213134765625 41.800051170889446C28.0909423828125 41.800051170889446 28.9239501953125 41.807131249014446 29.723876953125 41.813967186514446C36.130615234375 41.868532616201946 40.416259765625 41.905031639639446 44.4156494140625 38.134401756826946C49.3909912109375 33.528322655264446 50.687255859375 25.333376366201946 47.1416015625 21.226320702139446C45.29248046875 19.076784569326946 42.3187255859375 18.021242577139446 38.2774658203125 18.021242577139446L24.80029296875 18.021242577139446L18.56689453125 50.398012596670696ZM80.253173828125 50.398012596670696L73.2381591796875 50.398012596670696L79.4906005859375 18.021242577139446L92.9678955078125 18.021242577139446C97.0091552734375 18.021242577139446 99.9827880859375 19.076784569326946 101.8319091796875 21.226320702139446C105.3775634765625 25.333376366201946 104.081298828125 33.528322655264446 99.10595703125 38.134401756826946C95.133544921875 41.874086815420696 91.0369873046875 41.849672752920696 84.227294921875 41.809084374014446C83.4884033203125 41.804628807608196 82.7176513671875 41.800051170889446 81.91162109375 41.800051170889446L80.253173828125 50.398012596670696ZM29.9197998046875 36.688051659170696C35.67236328125 36.751162010733196 40.2203369140625 36.801027733389446 41.5943603515625 29.709108788076946C42.8765869140625 23.010378319326946 38.9300537109375 23.050600487295696 32.7608642578125 23.113466698233196C32.1429443359375 23.119753319326946 31.502685546875 23.126284081045696 30.8431396484375 23.126284081045696L28.2315673828125 36.675783592764446C28.80419921875 36.675783592764446 29.3675537109375 36.681948143545696 29.9197998046875 36.688051659170696ZM96.265625 29.709108788076946C94.8875732421875 36.836550194326946 90.287841796875 36.771547752920696 84.7164306640625 36.692751366201946C84.1220703125 36.684328514639446 83.5166015625 36.675783592764446 82.90283203125 36.675783592764446L85.514404296875 23.126284081045696C86.1778564453125 23.126284081045696 86.8214111328125 23.119753319326946 87.4420166015625 23.113466698233196C93.63330078125 23.050600487295696 97.5477294921875 23.010866600576946 96.265625 29.709108788076946Z"/>
  </g>
</svg>