<svg xmlns="http://www.w3.org/2000/svg" xmlns:xlink="http://www.w3.org/1999/xlink" height="50" width="49.98450139629995">
  <defs>
    <linearGradient id="linearGradient-5" x1="0.5022633601555052" y1="0.0038777218502905136" x2="0.5022633601555052" y2="0.9981183289907268">
      <stop offset="0" stop-color="rgb(255,255,255)" stop-opacity="1"/>
      <stop offset="1" stop-color="rgb(255,255,255)" stop-opacity="0"/>
    </linearGradient>
  </defs>
  <g opacity="1">
    <g opacity="1">
      <path fill="rgb(0,101,169)" fill-opacity="1" opacity="1" fill-rule="evenodd" d="M48.22459878659123 5.504825208123912L37.97850795278054 0.5714801985684286C36.7926133134567 0.00044774564184990595 35.37517298861706 0.24132188623779705 34.444328252885725 1.1720887278249283L0.902198727138203 31.754705030668433C0 32.577352663352535 0.00103729359115309 33.99770673423474 0.9044364840988925 34.81899461876564L3.6442649103776334 37.30966473594995C4.382841257246935 37.98118607389303 5.4951346715355855 38.03052550688046 6.290334816498727 37.42738007606956L46.682838630602156 6.78465901986003C48.037924790130916 5.756650566095971 49.98430714656414 6.723159553388298 49.98430714656414 8.424087943195866L49.98430714656414 8.305129404764758C49.98430714656414 7.111173401389829 49.30035382550612 6.022772704650213 48.22459878659123 5.504825208123912L48.22459878659123 5.504825208123912Z"/>
    </g>
    <g opacity="1">
      <g opacity="1">
        <path fill="rgb(0,122,204)" fill-opacity="1" opacity="1" fill-rule="evenodd" d="M48.22459878659123 44.49535097638665L37.97850795278053 49.42871152592102C36.7926133134567 49.99961150052752 35.37517298861706 49.758741827675514 34.44432825288572 48.82809134168035L0.902198727138203 18.245451728868602C0 17.422862371105353 0.00103729359115309 16.002450025302306 0.9044364840988925 15.18118156574502L3.6442649103776334 12.69041432369264C4.382841257246935 12.01899011061765 5.4951346715355855 11.969553552762136 6.290334816498727 12.572834958388347L46.682838630602156 43.215439464756074C48.037924790130916 44.243409068572895 49.98430714656414 43.27701663112227 49.98430714656414 41.57597169147301L49.98430714656414 41.69504677974582C49.98430714656414 42.88890565825265 49.30035382550612 43.97728693001866 48.22459878659123 44.49535097638665L48.22459878659123 44.49535097638665Z"/>
      </g>
    </g>
    <g opacity="1">
      <g opacity="1">
        <path fill="rgb(31,156,240)" fill-opacity="1" opacity="1" fill-rule="evenodd" d="M37.97909070198883 49.42948852486578C36.79280756319265 49.99999999999994 35.375367238353014 49.75893607741176 34.44452250262168 48.82809134168043C35.59137294497514 49.974941784033895 37.55251828135736 49.16258938736686 37.55251828135736 47.54060409033917L37.55251828135736 2.459436119356158C37.55251828135736 0.8374449948363941 35.59137294497514 0.025142131852082472 34.44452250262168 1.1720673603539702C35.375367238353014 0.24121407763424574 36.79280756319265 0 37.97909070198883 0.5705283748612134L48.22343328817396 5.497094068624317C49.29996532603353 6.014769615519977 49.98450139630006 7.103558811731932 49.98450139630006 8.298039289394518L49.98450139630006 41.702234019984225C49.98450139630006 42.896675647699574 49.29996532603353 43.98544541893791 48.22343328817396 44.503120965833574L37.97909070198883 49.42948852486578L37.97909070198883 49.42948852486578Z"/>
      </g>
    </g>
    <g opacity="0.25">
      <g opacity="1">
        <path fill="url(#linearGradient-5)" opacity="1" fill-rule="evenodd" d="M37.9559326171875 49.4296875C37.16552734375 49.81005859375 36.27239990234375 49.8294677734375 35.48919677734375 49.5245361328125C35.0977783203125 49.3719482421875 34.7335205078125 49.1383056640625 34.42352294921875 48.828125L14.8238525390625 30.94683837890625L6.28662109375 37.4273681640625C5.491943359375 38.030517578125 4.38031005859375 37.981201171875 3.64215087890625 37.3096923828125L0.90399169921875 34.8189697265625C0.00115966796875 33.9976806640625 0.0001220703125 32.57733154296875 0.90179443359375 31.75469970703125L8.3055419921875 25.00006103515625L0.90179443359375 18.2454833984375C0.0001220703125 17.4228515625 0.00115966796875 16.00244140625 0.90399169921875 15.18115234375L3.64215087890625 12.6904296875C4.38031005859375 12.01898193359375 5.491943359375 11.9696044921875 6.28662109375 12.57281494140625L14.8238525390625 19.05328369140625L34.42352294921875 1.172119140625C34.53985595703125 1.05572509765625 34.663818359375 0.95013427734375 34.79376220703125 0.8555908203125C35.70440673828125 0.193603515625 36.91864013671875 0.07135009765625 37.9559326171875 0.570556640625L48.19427490234375 5.49713134765625C49.27001953125 6.0147705078125 49.95416259765625 7.10357666015625 49.95416259765625 8.29803466796875L49.95416259765625 41.70220947265625C49.95416259765625 42.89666748046875 49.27001953125 43.9854736328125 48.194091796875 44.50311279296875L37.9559326171875 49.4296875ZM22.65802001953125 25.00006103515625L37.52978515625 13.71124267578125L37.52978515625 36.28887939453125L22.65802001953125 25.00006103515625Z"/>
      </g>
    </g>
  </g>
</svg>