<svg xmlns="http://www.w3.org/2000/svg" xmlns:xlink="http://www.w3.org/1999/xlink" height="50.07176276294308" width="49.89728128604929">
  <g>
    <path fill="rgb(116,116,116)" fill-opacity="1" opacity="1" fill-rule="evenodd" d="M35.47558939151804 13.714279544958572C32.89429056339304 11.252548587927322 29.449588414955542 9.911423099646072 25.885562536049292 9.966598880896072C19.363650914955542 9.966598880896072 13.824649450111792 14.366562259802322 11.849612829018042 20.291366947302322C10.802463170814917 23.396164310583572 10.802463170814917 26.758163822302322 11.849612829018042 29.863022220739822L11.858859655189917 29.863022220739822C13.842929479408667 35.77867163480232 19.372867223549292 40.17869604886482 25.894717809486792 40.17869604886482C29.261355993080542 40.17869604886482 32.15161478214304 39.31755102933357 34.39166605167429 37.79649390042732L34.39166605167429 37.79032934964607C37.02789652042429 36.04502905667732 38.82831155948679 33.29844702542732 39.38867532901804 30.193710697302322L25.885562536049292 30.193710697302322L25.885562536049292 20.567001712927322L49.46551859073679 20.567001712927322C49.75952493839304 22.238815677771072 49.89728128604929 23.947372806677322 49.89728128604929 25.646713626989822C49.89728128604929 33.25029028714607 47.17987405948679 39.67881811917732 42.45172464542429 44.03282202542732L42.45679056339304 44.03672827542732C38.31396829776804 47.85795630277107 32.62793314151804 50.07176245511482 25.885562536049292 50.07176245511482C16.433383580971167 50.07176245511482 7.789523717689917 44.74394263089607 3.5456577508930422 36.30223120511482C0.000003454018042248208 29.238388431677322 0.000003454018042248208 20.916061771521072 3.5456577508930422 13.852157962927322C7.789523717689917 5.401230228552322 16.433383580971167 0.07341040433357193 25.885562536049292 0.07341040433357193C32.09521829776804 -0.000014888635178067489 38.09344827823679 2.333114994177322 42.61291849308054 6.576950443396072L35.47558939151804 13.714279544958572Z"/>
  </g>
</svg>