<svg xmlns="http://www.w3.org/2000/svg" xmlns:xlink="http://www.w3.org/1999/xlink" height="50" width="50.00134266745408">
  <g opacity="1">
    <path fill="rgb(244,77,39)" fill-opacity="1" opacity="1" fill-rule="evenodd" d="M48.759372771920425 22.801101926511773L27.20514374738456 1.241361720941764C25.962666204631788 0 23.949395330069283 0 22.706917787316506 1.241361720941764L18.225225370350877 5.7197474292869055L23.90394630793251 11.398468366868537C26.886597483611062 10.391024473827077 29.71052664550627 13.246918485720322 28.68654920936238 16.21303611829644L34.16025421247386 21.686741121407927C37.93320874844862 20.38610239735002 40.90373532585205 25.103673362577002 38.06988603809538 27.93531817792001C35.15006232620607 30.855141889809325 30.331085629950856 27.618976386560163 31.89736327985448 23.81956818162152L26.788498461203297 18.71731678021132L26.788498461203297 32.14806496041943C29.57715606447999 33.53026916378266 29.24207625760406 36.76092348599768 27.78932893700379 38.210364097977454C26.311341452844992 39.687494105129346 23.91595963700909 39.687494105129346 22.437972152850296 38.210364097977454C20.501343137452213 36.270428373958886 21.21779667189089 33.039774051743876 23.67798788553262 32.03784133973656L23.67798788553262 18.480335995743143C21.385336575328854 17.542332983731892 20.966486816733937 15.092061895951616 21.623419596003863 13.520273065013846L16.02516190152073 7.915401953289739L1.241969895533775 22.700798431690355C0 23.9430241586374 0 25.95679866481137 1.2419698955337757 27.199024391758414L22.802812337310606 48.75876459732842C24.044911794340553 50 26.05783660414189 50 27.299936061171834 48.75876459732842L48.759372771920425 27.299327886579828C50.001342667454196 26.057102159632784 50.001342667454196 24.043327653458807 48.759372771920425 22.801101926511762L48.759372771920425 22.801101926511773Z"/>
  </g>
</svg>