<svg xmlns="http://www.w3.org/2000/svg" xmlns:xlink="http://www.w3.org/1999/xlink" height="50.00000009731366" width="51.02040826057919">
  <g opacity="1">
    <path fill="rgb(255,51,102)" fill-opacity="1" opacity="1" fill-rule="evenodd" d="M0 5.10205078125L0 44.89794921875C0 46.2510986328125 0.53753662109375 47.54888916015625 1.494384765625 48.505615234375C2.45111083984375 49.46240234375 3.7489013671875 50 5.10205078125 50L45.9183349609375 50C47.271484375 50 48.5693359375 49.46240234375 49.5260009765625 48.505615234375C50.48291015625 47.54888916015625 51.0203857421875 46.2510986328125 51.0203857421875 44.89794921875L51.0203857421875 5.10205078125C51.0203857421875 3.7489013671875 50.48291015625 2.45111083984375 49.5260009765625 1.494384765625C48.5693359375 0.53753662109375 47.271484375 0 45.9183349609375 0L5.10205078125 0C3.7489013671875 0 2.45111083984375 0.53753662109375 1.494384765625 1.494384765625C0.53753662109375 2.45111083984375 0 3.7489013671875 0 5.10205078125ZM20.2958984375 14.48980712890625C21.09185791015625 14.88775634765625 21.4796142578125 15.63262939453125 21.40814208984375 16.6224365234375C21.23468017578125 19 17.755126953125 19.30609130859375 17.13262939453125 17C17 16.5 17.09185791015625 15.68365478515625 17.3265380859375 15.2755126953125C17.41839599609375 15.11224365234375 17.7244873046875 14.81634521484375 18.01019287109375 14.63262939453125C18.45916748046875 14.3265380859375 18.59185791015625 14.28570556640625 19.21429443359375 14.28570556640625C19.7041015625 14.28570556640625 20.0203857421875 14.346923828125 20.2958984375 14.48980712890625ZM34.357177734375 21.255126953125C33.8878173828125 20.74493408203125 33.3673095703125 20.44903564453125 32.60205078125 20.24493408203125C31.79595947265625 20.0306396484375 31.2041015625 20.09185791015625 30.255126953125 20.4796142578125C29.38775634765625 20.8367919921875 28.10205078125 21.91839599609375 27.5306396484375 22.755126953125C27.30615234375 23.09185791015625 27.30615234375 22.91839599609375 27.551025390625 21.7347412109375C27.66326904296875 21.2041015625 27.755126953125 20.6837158203125 27.755126953125 20.5816650390625C27.755126953125 20.41839599609375 27.56121826171875 20.408203125 25.06121826171875 20.408203125C23.5714111328125 20.408203125 22.33673095703125 20.44903564453125 22.30615234375 20.5C22.19390869140625 20.67352294921875 21.6326904296875 22.8367919921875 21.60205078125 23.21429443359375C21.5816650390625 23.408203125 21.653076171875 23.41839599609375 22.78570556640625 23.44903564453125C23.43878173828125 23.459228515625 23.9796142578125 23.51025390625 23.9796142578125 23.561279296875C23.9796142578125 23.60205078125 23.88775634765625 24 23.76531982421875 24.44903564453125C23.64288330078125 24.88775634765625 23.48980712890625 25.5306396484375 23.408203125 25.86737060546875C23.33673095703125 26.2041015625 23.153076171875 26.93878173828125 23 27.5C22.857177734375 28.061279296875 22.6837158203125 28.74493408203125 22.6224365234375 29.0306396484375C22.28570556640625 30.59185791015625 20.79595947265625 31.9796142578125 19.31634521484375 32.11224365234375C18.80615234375 32.153076171875 18.6837158203125 32.1326904296875 18.4285888671875 31.9285888671875C18.153076171875 31.71429443359375 18.14288330078125 31.67352294921875 18.19390869140625 31.0816650390625C18.2244873046875 30.7347412109375 18.29595947265625 30.2755126953125 18.357177734375 30.051025390625C18.61224365234375 29.0306396484375 18.7755126953125 28.36737060546875 18.91839599609375 27.755126953125C19.01019287109375 27.38775634765625 19.19390869140625 26.6326904296875 19.346923828125 26.07147216796875C19.48980712890625 25.51025390625 19.6734619140625 24.7755126953125 19.755126953125 24.43878173828125C19.8265380859375 24.10205078125 20.01019287109375 23.36737060546875 20.16326904296875 22.80615234375C20.43878173828125 21.74493408203125 20.7041015625 20.62249755859375 20.71429443359375 20.4796142578125C20.71429443359375 20.43878173828125 19.33673095703125 20.408203125 17.653076171875 20.408203125L14.60205078125 20.408203125L14.48980712890625 20.8367919921875C14.4285888671875 21.0816650390625 14.33673095703125 21.43878173828125 14.28570556640625 21.6326904296875C14.10205078125 22.2755126953125 13.8775634765625 23.24493408203125 13.8775634765625 23.357177734375C13.8775634765625 23.4285888671875 14.2755126953125 23.46942138671875 15.11224365234375 23.46942138671875C16.24493408203125 23.46942138671875 16.346923828125 23.4796142578125 16.2755126953125 23.64288330078125C16.23468017578125 23.74493408203125 16.1837158203125 23.89801025390625 16.1734619140625 23.9796142578125C16.1224365234375 24.2244873046875 15.51019287109375 26.74493408203125 15.408203125 27.14288330078125C15.3265380859375 27.44903564453125 14.948974609375 29.04083251953125 14.59185791015625 30.59185791015625C14.45916748046875 31.16326904296875 14.46942138671875 31.66326904296875 14.6326904296875 32.34698486328125C15 33.908203125 15.93878173828125 34.59185791015625 17.69390869140625 34.59185791015625C19.19390869140625 34.59185791015625 20.2041015625 34.1326904296875 21.2244873046875 32.9796142578125C21.78570556640625 32.34698486328125 21.81634521484375 32.38775634765625 21.5306396484375 33.41839599609375C21.41839599609375 33.80615234375 21.3265380859375 34.19390869140625 21.3265380859375 34.255126953125C21.3265380859375 34.357177734375 21.755126953125 34.38775634765625 23.16326904296875 34.38775634765625C24.9796142578125 34.38775634765625 25 34.38775634765625 25.051025390625 34.153076171875C25.23468017578125 33.3367919921875 25.3265380859375 32.959228515625 25.653076171875 31.6326904296875C25.857177734375 30.81634521484375 26.0714111328125 29.98980712890625 26.1224365234375 29.79595947265625C26.21429443359375 29.4796142578125 26.7041015625 27.5 27.0816650390625 25.96942138671875C27.5306396484375 24.11224365234375 28.96942138671875 22.89801025390625 30.28570556640625 23.255126953125C31.81634521484375 23.66326904296875 31.98980712890625 24.57147216796875 31.11224365234375 27.69390869140625C30.39794921875 30.2244873046875 30.39794921875 30.24493408203125 30.33673095703125 31.24493408203125C30.255126953125 32.755126953125 30.73468017578125 33.71429443359375 31.857177734375 34.2755126953125C32.4285888671875 34.57147216796875 32.56121826171875 34.59185791015625 33.5203857421875 34.59185791015625C34.4693603515625 34.59185791015625 34.6123046875 34.57147216796875 35.1837158203125 34.2755126953125C36.1734619140625 33.7857666015625 36.71435546875 33.11224365234375 37.561279296875 31.31634521484375C37.60205078125 31.2244873046875 37.6734619140625 30.98980712890625 37.7041015625 30.79595947265625C37.7652587890625 30.459228515625 37.755126953125 30.43878173828125 37.3265380859375 30.26531982421875C36.7244873046875 30.01025390625 36.4285888671875 29.89801025390625 36.3775634765625 29.89801025390625C36.30615234375 29.89801025390625 35.9183349609375 30.6837158203125 35.9183349609375 30.81634521484375C35.9183349609375 30.93878173828125 35.591796875 31.43878173828125 35.2652587890625 31.80615234375C34.8265380859375 32.31634521484375 34.0714111328125 32.17352294921875 33.948974609375 31.561279296875C33.8878173828125 31.2244873046875 34.1326904296875 30.0816650390625 34.7958984375 27.755126953125C35.2244873046875 26.21429443359375 35.2857666015625 25.94903564453125 35.408203125 25.14288330078125C35.51025390625 24.44903564453125 35.5 24.1837158203125 35.3673095703125 23.459228515625C35.1734619140625 22.41839599609375 34.9183349609375 21.86737060546875 34.357177734375 21.255126953125Z"/>
  </g>
</svg>