<svg xmlns="http://www.w3.org/2000/svg" xmlns:xlink="http://www.w3.org/1999/xlink" height="50" width="48.89234133149239">
  <g opacity="1">
    <g opacity="1">
      <path fill="rgb(0,170,255)" fill-opacity="1" opacity="1" fill-rule="evenodd" d="M29.98077780654819 4.309619368203003C46.03751294665985 8.619328643765463 48.89234133149212 16.373029230680704 45.10166724207385 30.543957506185627C41.310993152655584 44.71488578169055 34.96829866505559 50 18.911563524943936 45.690380631797C2.854828384832274 41.380761263593996 0 33.62697076931929 3.7906740894182707 19.456042493814373C7.581438086195997 5.285114218309454 13.924132573795989 0 29.98077780654819 4.309619368203003L29.98077780654819 4.309619368203003Z"/>
    </g>
    <g opacity="1">
      <path fill="rgb(255,255,255)" fill-opacity="1" opacity="1" fill-rule="evenodd" d="M20.25163271764764 30.858902986363017L34.76654655043426 16.34398915357625C35.52176836987151 15.588767334138993 36.74612679095442 15.588767334138993 37.501258703032214 16.34398915357625C38.25648052246946 17.099121065654046 38.25648052246946 18.323569394096427 37.501258703032214 19.078701306174224L21.619033747626347 34.961016168939715C20.863811928189097 35.71623798837697 19.63945350710619 35.71623798837697 18.88423168766894 34.961016168939715L12.491458800851552 28.56824328212226C11.73632688877376 27.81311137004446 11.73632688877376 26.588663041602082 12.491458800851552 25.833531129524285C13.2466806202888 25.07830931008703 14.471039041371707 25.07830931008703 15.226170953449499 25.833531129524285L20.25163271764764 30.85890298636302L20.25163271764764 30.858902986363017Z"/>
    </g>
  </g>
</svg>