<svg xmlns="http://www.w3.org/2000/svg" xmlns:xlink="http://www.w3.org/1999/xlink" height="25" width="25">
  <g opacity="1">
    <path fill="rgb(255,255,255)" fill-opacity="1" opacity="1" fill-rule="evenodd" d="M24.09533073929961 1.293774319066148L19.036964980544745 0.12645914396887148C18.487354085603112 0 17.923151750972764 0.286964980544747 17.699416342412448 0.8025291828793771L15.364785992217897 6.25C15.160505836575874 6.7266536964980554 15.296692607003893 7.2859922178988334 15.700389105058363 7.611867704280155L18.647859922178984 10.024319066147859C16.896887159533073 13.754863813229573 13.837548638132297 16.8579766536965 10.029182879377432 18.642996108949415L7.616731517509727 15.69552529182879C7.285992217898832 15.291828793774314 6.7315175097276265 15.1556420233463 6.254863813229572 15.359922178988326L0.8073929961089493 17.69455252918288C0.286964980544747 17.923151750972764 0 18.487354085603116 0.12645914396887148 19.036964980544745L1.293774319066148 24.09533073929961C1.4153696498054475 24.620622568093385 1.8822957198443582 25 2.4319066147859925 25C14.888132295719844 25 25 14.907587548638132 25 2.4319066147859925C25 1.88715953307393 24.625486381322958 1.4153696498054475 24.09533073929961 1.293774319066148L24.09533073929961 1.293774319066148Z"/>
  </g>
</svg>