<svg xmlns="http://www.w3.org/2000/svg" xmlns:xlink="http://www.w3.org/1999/xlink" height="25" width="25">
  <g opacity="1">
    <path fill="rgb(255,255,255)" fill-opacity="1" opacity="1" fill-rule="evenodd" d="M0 12.5C0 5.590667724609375 5.591784477233887 0 12.5 0C19.456804275512695 0 25 4.417999267578125 25 11.290313720703125C25 15.11077880859375 22.913759231567383 18.72027587890625 17.42444610595703 18.72027587890625C15.907403945922852 18.72027587890625 14.340364456176758 18.72027587890625 13.860433578491211 17.001373291015625C12.972228050231934 18.14532470703125 11.440726280212402 18.9334716796875 10.080645561218262 18.9334716796875C7.096018314361572 18.9334716796875 5.2419352531433105 16.888763427734375 5.2419352531433105 13.5972900390625C5.2419352531433105 9.100006103515625 8.4299898147583 5.96319580078125 12.189062118530273 5.96319580078125C13.173084259033203 5.96319580078125 14.471017837524414 6.158477783203125 15.211793899536133 7.06072998046875L15.212298393249512 7.05609130859375C15.251395225524902 6.711761474609375 15.542750358581543 6.45159912109375 15.889314651489258 6.45159912109375L18.15650177001953 6.45159912109375C18.91673469543457 6.45159912109375 19.488557815551758 7.1446533203125 19.34410285949707 7.891082763671875L18.16300392150879 13.99542236328125C17.989919662475586 14.860687255859375 17.967792510986328 15.48583984375 18.84223747253418 15.50872802734375C20.71103858947754 15.3095703125 21.774192810058594 13.245269775390625 21.774192810058594 11.290313720703125C21.774192810058594 6.1300048828125 17.54732894897461 3.225799560546875 12.5 3.225799560546875C7.3861894607543945 3.225799560546875 3.225806474685669 7.386199951171875 3.225806474685669 12.5C3.225806474685669 17.613800048828125 7.3861894607543945 21.774200439453125 12.5 21.774200439453125C14.279939651489258 21.774200439453125 16.024192810058594 21.257904052734375 17.510583877563477 20.304595947265625C18.024394989013672 19.97503662109375 18.705242156982422 20.090789794921875 19.09188461303711 20.5631103515625L19.604839324951172 21.18975830078125C20.06214714050293 21.748443603515625 19.930089950561523 22.5787353515625 19.325000762939453 22.972625732421875C17.305543899536133 24.28729248046875 14.927117347717285 25 12.5 25C5.590675354003906 25 0 19.408203125 0 12.5ZM9.589213371276855 13.28924560546875C9.589213371276855 14.556793212890625 10.285836219787598 15.34423828125 11.407258033752441 15.34423828125C12.63135051727295 15.34423828125 14.338760375976562 13.94964599609375 14.338760375976562 11.67840576171875C14.338760375976562 10.39166259765625 13.667943000793457 9.62347412109375 12.544354438781738 9.62347412109375C11.14057445526123 9.62347412109375 9.589213371276855 11.021453857421875 9.589213371276855 13.28924560546875Z"/>
  </g>
</svg>