<svg xmlns="http://www.w3.org/2000/svg" xmlns:xlink="http://www.w3.org/1999/xlink" height="25" width="25.492059331104787">
  <g opacity="1">
    <path fill="rgb(255,255,255)" fill-opacity="1" opacity="1" fill-rule="evenodd" d="M12.746121793612131 0.000061506238581C5.707558502620447 0.000061506238581 0 5.714718893937414 0 12.764348687887415C0 18.40401971972017 3.6521303076363507 23.188528512447014 8.71657353458723 24.8763622094189C9.353557176058757 24.994484940607524 9.587480556181651 24.599461123341737 9.587480556181651 24.26230442553788C9.587480556181651 23.95797155705503 9.575575563573437 22.952385560467395 9.570180953853292 21.88583663040942C6.024110515876195 22.65797569847509 5.275866887595822 20.37981537467345 5.275866887595822 20.37981537467345C4.696074298318703 18.90443447678898 3.860657052625124 18.51220919337848 3.860657052625124 18.51220919337848C2.704265646808428 17.71995758529787 3.9478306700383294 17.73617473020288 3.9478306700383294 17.73617473020288C5.227786276864279 17.826271118679564 5.901754216094603 19.051588152586312 5.901754216094603 19.051588152586312C7.038563290991682 21.002986332903742 8.883519815281447 20.43877935539001 9.610870846903724 20.112734784689206C9.725232478390378 19.287638845208065 10.055613937057734 18.724641490386364 10.420082777827716 18.40589565999679C7.589069393723571 18.083049413702028 4.612903133278509 16.98856640028998 4.612903133278509 12.097703070022392C4.612903133278509 10.704197226724705 5.110824586802832 9.56547072569571 5.926250043533519 8.671610811484609C5.793892731044939 8.350066447239744 5.357645895288883 7.051864520618327 6.049701643580871 5.293667686713465C6.049701643580871 5.293667686713465 7.120035205152285 4.95060639000614 9.555788503632181 6.602079648938792C10.572431879279186 6.319181704600299 11.662859594324312 6.17742007571828 12.746080847807802 6.172622589109214C13.82930210129129 6.17742007571828 14.920528259520802 6.319181704600299 15.939177979579853 6.602079648938792C18.372034362403582 4.950606390006139 19.44086316566596 5.293667686713465 19.44086316566596 5.293667686713465C20.134618164837537 7.051864520618327 19.698166600059846 8.350066447239744 19.56581952402235 8.671610811484609C20.383036359692362 9.565470725695707 20.877559311457503 10.704094716327077 20.877559311457503 12.097703070022392C20.877559311457503 17.000180828341417 17.89579371227066 18.079738327858593 15.057584103055957 18.39568562439288C15.514723535470111 18.7918063029133 15.922083106273131 19.568650598230178 15.922083106273131 20.7594318791755C15.922083106273131 22.467265354724926 15.907281198008747 23.84184777862018 15.907281198008747 24.26230442553788C15.907281198008747 24.6019623770439 16.136700539655617 25 16.782876514198666 24.874660536818247C21.844525190004195 23.184940648529977 25.492059331104787 18.402092524244733 25.492059331104787 12.764287181648834C25.492059331104787 5.714698391857885 19.785340217473053 0 12.746039902003476 0"/>
  </g>
</svg>