<svg xmlns="http://www.w3.org/2000/svg" xmlns:xlink="http://www.w3.org/1999/xlink" height="25.000022227369016" width="24.87356570548516">
  <g opacity="1">
    <path fill="rgb(255,255,255)" fill-opacity="1" opacity="1" fill-rule="evenodd" d="M1.8383886926931439 0C0.8233425730032025 0 1.1281400702500832e-8 0.80230712890625 1.1281400702500832e-8 1.790863037109375L1.1281400702500832e-8 23.20977783203125C1.1281400702500832e-8 24.198333740234375 0.8233425730032025 25 1.8383886926931439 25L23.035139095143705 25C24.05056382353726 25 24.873565685109526 24.198333740234375 24.873565685109526 23.20947265625L24.873565685109526 1.790863037109375C24.873565685109526 0.80230712890625 24.050525676564604 0 23.035139095143705 0L1.8383886926931439 0ZM7.787591945485502 6.147369384765625C7.787591945485502 7.230682373046875 6.9721136205953655 8.09759521484375 5.662252437428862 8.09759521484375L5.6376371496481 8.09759521484375C4.3767037504476605 8.09759521484375 3.56156612570706 7.230682373046875 3.56156612570706 6.147369384765625C3.56156612570706 5.03948974609375 4.401318561391264 4.19683837890625 5.687207710103422 4.19683837890625C6.9721136205953655 4.19683837890625 7.7629766577047405 5.03948974609375 7.787591945485502 6.147369384765625ZM13.375998508290678 20.92742919921875L9.619439136342436 20.92742919921875L9.61948586638394 20.917388916015625C9.621206294850737 20.552734375 9.667774211720854 10.67864990234375 9.619741451100737 9.638946533203125L13.376338970021635 9.638946533203125L13.376338970021635 11.237060546875C13.367906581715971 11.250030517578125 13.359588634328276 11.262908935546875 13.351383220509916 11.275726318359375L13.376338970021635 11.275726318359375L13.376338970021635 11.237060546875C13.875638019399076 10.467987060546875 14.76938534911099 9.3740234375 16.762271892384916 9.3740234375C19.233924877004057 9.3740234375 21.08709717925015 10.987518310546875 21.08709717925015 14.454803466796875L21.08709717925015 20.92742919921875L17.33053780730191 20.92742919921875L17.33053780730191 14.888916015625C17.33053780730191 13.371185302734375 16.78654671843472 12.3360595703125 15.427454006032377 12.3360595703125C14.389418613271147 12.3360595703125 13.7712402456564 13.03411865234375 13.499754916982084 13.708587646484375C13.40061379607144 13.94921875 13.375998508290678 14.28692626953125 13.375998508290678 14.623992919921875L13.375998508290678 20.92742919921875ZM7.540078174428373 9.63861083984375L3.7831785791677532 9.63861083984375L3.7831785791677532 20.92742919921875L7.540078174428373 20.92742919921875L7.540078174428373 9.63861083984375Z"/>
  </g>
</svg>